<?xml version="1.0" encoding="UTF-8"?>
<svg version="1.1" xmlns="http://www.w3.org/2000/svg" width="500" height="500">
<path d="M0 0 C0.68986038 -0.00367669 1.37972075 -0.00735338 2.09048599 -0.01114148 C4.40171646 -0.02215279 6.71290192 -0.02601785 9.02415466 -0.02983093 C10.68175397 -0.03609765 12.33935187 -0.04274464 13.99694824 -0.04974365 C19.44147263 -0.07076656 24.88599723 -0.0811463 30.33055115 -0.09111023 C32.20745801 -0.09515884 34.08436472 -0.09927579 35.96127129 -0.10346031 C44.78243379 -0.12251029 53.60358796 -0.13674016 62.42476708 -0.14507228 C72.59265647 -0.15483592 82.76032767 -0.18113344 92.92814022 -0.22157317 C100.79584545 -0.25178597 108.66348833 -0.26654616 116.53125042 -0.26985329 C121.22595496 -0.27219842 125.92042635 -0.28108837 130.61506844 -0.30631447 C135.03678819 -0.32968989 139.45812287 -0.3337906 143.87988853 -0.32355309 C145.49590464 -0.32305986 147.11194032 -0.32931679 148.72789764 -0.34310913 C164.52170589 -0.47028282 175.38926122 3.30172924 187.24461365 14.05732727 C192.06176461 19.05935823 194.23036973 24.53829356 196.1391449 31.14717102 C196.31489548 31.73184143 196.49064606 32.31651184 196.67172241 32.91889954 C197.26509058 35.74757255 197.30363638 38.42410332 197.34446716 41.31513977 C197.36439224 42.57931732 197.38431732 43.84349487 197.40484619 45.14598083 C197.42190934 46.54220893 197.43880555 47.93843908 197.45555115 49.33467102 C197.47641298 50.8030898 197.49759474 52.27150406 197.51907349 53.73991394 C197.57550773 57.71466572 197.6250492 61.68947272 197.67218018 65.66434479 C197.70161888 68.14497864 197.73212235 70.62559764 197.76280212 73.10621643 C197.89931118 84.2645779 198.01449812 95.42308371 198.1158371 106.58181763 C198.13126178 108.27952246 198.14687879 109.97722555 198.16269684 111.67492676 C198.25855163 121.98040158 198.33284369 132.28564768 198.37031555 142.59150696 C198.3813293 145.52745974 198.39911592 148.4632474 198.42286682 151.39912415 C198.45539011 155.50010297 198.462622 159.60075296 198.4672699 163.70185852 C198.47957138 164.89253937 198.49187286 166.08322021 198.50454712 167.3099823 C198.46941483 180.67353803 195.84248705 192.4620835 186.5141449 202.27217102 C179.72687089 208.76044617 170.06661133 216.14717102 160.1391449 216.14717102 C160.16009216 217.06006897 160.18103943 217.97296692 160.20262146 218.91352844 C160.27097207 222.31483637 160.32102819 225.71541001 160.35887146 229.11714172 C160.37893315 230.58666023 160.40618968 232.05609943 160.44090271 233.52534485 C160.48966631 235.64297589 160.51216651 237.75954789 160.5297699 239.87763977 C160.55071716 241.15018616 160.57166443 242.42273254 160.59324646 243.73384094 C160.05905637 247.7491698 159.05256751 249.37581133 156.1391449 252.14717102 C149.49509728 253.49640133 145.62601287 251.12396901 140.06858826 247.57417297 C139.08124695 246.91763733 138.09390564 246.26110168 137.0766449 245.58467102 C136.03967468 244.91588928 135.00270447 244.24710754 133.93431091 243.55805969 C130.65732274 241.43882023 127.39767362 239.29466156 124.1391449 237.14717102 C121.99412439 235.74748706 119.84830488 234.34902675 117.7016449 232.95185852 C114.70156566 230.99888143 111.70357009 229.04336736 108.71507263 227.07270813 C107.82247742 226.4849762 106.9298822 225.89724426 106.01023865 225.29170227 C104.84899475 224.523703 104.84899475 224.523703 103.66429138 223.7401886 C102.83099304 223.2144928 101.9976947 222.688797 101.1391449 222.14717102 C100.13640533 221.46426498 99.13366577 220.78135895 98.10054016 220.07775879 C93.56005181 217.51182124 89.34605839 217.60070498 84.23167419 217.66474915 C83.26160431 217.66083664 82.29153442 217.65692413 81.29206848 217.65289307 C79.19468521 217.64693492 77.09726043 217.65005754 74.99989891 217.66131592 C71.67361689 217.67862789 68.34820022 217.67104157 65.02191162 217.65705872 C56.76040522 217.62745828 48.49906572 217.64057605 40.23753357 217.65223694 C33.25345497 217.66046051 26.26975528 217.65241751 19.28573036 217.62310791 C16.02077882 217.61604522 12.75650566 217.63265359 9.49160767 217.65022278 C7.47266788 217.644511 5.45373082 217.6376918 3.43479919 217.6295929 C2.08858742 217.64656471 2.08858742 217.64656471 0.71517944 217.66387939 C-10.32538759 217.55867965 -20.09126009 212.57858373 -28.06007385 205.07685852 C-32.68418599 200.17068409 -35.57261793 195.44867398 -37.8608551 189.14717102 C-38.12711228 188.44258192 -38.39336946 187.73799282 -38.66769505 187.01205254 C-41.17866951 179.65871514 -41.29180269 172.70079631 -41.26490784 164.9835968 C-41.27062212 163.58288533 -41.27759045 162.1821785 -41.28570557 160.78147888 C-41.30353661 157.00445821 -41.30248758 153.22767113 -41.29676318 149.45062113 C-41.2936563 146.28492554 -41.29978044 143.11927386 -41.30580193 139.95358455 C-41.3198129 132.47852489 -41.31831489 125.0035796 -41.30690002 117.52851868 C-41.29542553 109.8451454 -41.30949092 102.16212147 -41.3362965 94.47879422 C-41.35852784 87.85592972 -41.36507412 81.23317427 -41.35922009 74.61027515 C-41.3558666 70.66626225 -41.35815733 66.72247311 -41.37547112 62.77849197 C-41.39105719 59.0665962 -41.38685745 55.3552136 -41.36816597 51.64333725 C-41.36278523 49.65140203 -41.37690546 47.65944311 -41.39186096 45.66755676 C-41.29736558 34.0053845 -38.66270232 23.12096953 -30.8608551 14.14717102 C-21.98855964 5.67397536 -12.35901892 0.04274303 0 0 Z M89.28636169 19.29760742 C80.09544443 19.37692351 70.90461068 19.4648385 61.71379089 19.55467606 C59.66923711 19.57462187 57.62468143 19.59437536 55.5801239 19.61393356 C49.66282894 19.67076376 43.74561109 19.73209349 37.82843018 19.79979706 C36.00975007 19.82003409 34.19105448 19.83893602 32.37234497 19.85633087 C23.37690698 19.94345613 14.38331989 20.0991407 5.39500427 20.47944641 C4.32257351 20.51135779 4.32257351 20.51135779 3.22847748 20.54391384 C-2.71075032 20.83841253 -8.25430679 22.14958621 -13.06788635 25.83857727 C-13.59769104 26.45603821 -14.12749573 27.07349915 -14.6733551 27.70967102 C-15.21605042 28.30908508 -15.75874573 28.90849915 -16.31788635 29.52607727 C-22.36201333 39.79344234 -21.26444186 51.44089715 -21.1889801 62.93623352 C-21.18591076 65.00087851 -21.1840436 67.06552559 -21.18330383 69.13017273 C-21.1787069 73.46925254 -21.16433634 77.80814621 -21.1421051 82.14717102 C-21.11434939 87.57900351 -21.10306444 93.01068893 -21.09824371 98.44258499 C-21.08639983 111.00631711 -21.01273449 123.56874717 -20.88938904 136.13186646 C-20.86102152 139.12958454 -20.8373889 142.12731401 -20.81422424 145.12507629 C-20.77528226 149.8122473 -20.71409974 154.49863448 -20.63523102 159.18529892 C-20.608935 160.90127833 -20.58897759 162.61736871 -20.5759201 164.33349991 C-20.48886263 174.78317749 -19.6416305 181.53001901 -13.6733551 190.39717102 C-5.35759979 198.52813177 4.94868538 197.75110986 15.8500824 197.75654602 C17.58533743 197.77156876 19.32057838 197.78830429 21.05580139 197.80665588 C25.61540881 197.85021152 30.17482543 197.87027739 34.73460388 197.88539124 C39.31358173 197.90479709 43.8923404 197.94701551 48.47117615 197.98701477 C55.2411578 198.04274161 62.01108799 198.0890444 68.78123474 198.11885071 C69.92997354 198.12486109 69.92997354 198.12486109 71.10191917 198.13099289 C75.19018458 198.14899446 79.27688718 198.14147778 83.36503601 198.10334778 C84.22457697 198.0973418 85.08411793 198.09133583 85.96970558 198.08514786 C87.61028297 198.072813 89.25083166 198.05488992 90.89127159 198.03033066 C102.80012578 197.95251713 110.88188378 204.39229743 120.3290863 210.91181946 C124.52214001 213.7735475 128.82914152 216.46586529 133.1391449 219.14717102 C134.02344177 219.70533508 134.90773865 220.26349915 135.8188324 220.83857727 C137.9855068 222.31091623 137.9855068 222.31091623 140.1391449 222.14717102 C140.15316345 221.2243634 140.15316345 221.2243634 140.16746521 220.28291321 C140.22125574 217.48686016 140.30488309 214.69246482 140.3891449 211.89717102 C140.40332458 210.92908508 140.41750427 209.96099915 140.43211365 208.96357727 C140.6763195 201.88160757 140.6763195 201.88160757 142.8032074 198.50654602 C145.77747493 196.77570137 147.8323207 196.68024884 151.2641449 196.64717102 C159.06455687 196.24445615 165.96744238 194.88701358 171.5141449 189.02217102 C176.85934261 181.6873361 178.74468631 174.19418044 178.56492615 165.24092102 C178.56213654 164.27860565 178.55934692 163.31629028 178.55647278 162.32481384 C178.54163548 159.0984478 178.49715998 155.87323987 178.4516449 152.64717102 C178.43238777 150.33842603 178.41461182 148.0296683 178.3981781 145.72090149 C178.35690366 140.52524621 178.30116489 135.32989874 178.23777771 130.13447571 C178.14899479 122.75003105 178.09829236 115.36565158 178.05616856 107.98080826 C178.01336645 100.53240354 177.95867787 93.08414982 177.89540005 85.63589096 C177.85599185 80.99716872 177.8202696 76.35849822 177.79408264 71.71968079 C177.76831839 67.29951479 177.72768313 62.87971361 177.67627335 58.45977402 C177.65953634 56.81813789 177.6478011 55.17644196 177.64144516 53.53473282 C177.5951626 42.64162897 177.41810491 33.30187902 169.32273865 25.04438782 C160.21376721 17.13005228 147.37776304 18.65973976 136.1391449 18.83467102 C134.04085102 18.85266722 131.94254195 18.86895378 129.84422302 18.88374329 C124.9293178 18.92309586 120.0147364 18.97708659 115.1000824 19.03974915 C106.49569536 19.1485929 97.89110655 19.22341439 89.28636169 19.29760742 Z " fill="#F34E8A" transform="translate(170.86085510253906,81.85282897949219)"/>
<path d="M0 0 C0.72960937 0.02964844 1.45921875 0.05929688 2.2109375 0.08984375 C6.18853495 1.69246797 8.50246047 4.36987124 10.625 8.0625 C11.48701671 12.08601192 11.46357069 16.01771977 11.4296875 20.12109375 C11.45024704 21.83752831 11.45024704 21.83752831 11.47122192 23.58863831 C11.50846835 27.22616075 11.50481016 30.86231418 11.5 34.5 C11.5181303 36.97332858 11.53893402 39.44663911 11.5625 41.91992188 C11.61931082 47.96824473 11.62075325 54.01300079 11.625 60.0625 C22.185 60.0625 32.745 60.0625 43.625 60.0625 C43.59019531 57.73832031 43.55539062 55.41414063 43.51953125 53.01953125 C43.49610955 50.75904569 43.47790793 48.49857384 43.46020508 46.23803711 C43.44515378 44.67156893 43.42470793 43.10514264 43.39868164 41.53881836 C43.36213567 39.28228394 43.34523739 37.02630847 43.33203125 34.76953125 C43.30880547 33.72548882 43.30880547 33.72548882 43.28511047 32.66035461 C43.28325708 27.25944457 44.70105706 24.20843636 48.25 20.25 C51.98588179 18.38205911 55.53732114 18.41285104 59.625 19.0625 C63.00162058 20.93041777 64.26646741 22.18878511 65.72802734 25.75048828 C66.71911408 29.41000996 66.94513098 32.64111635 67.0390625 36.4296875 C67.06811172 37.44906906 67.06811172 37.44906906 67.0977478 38.48904419 C67.15705099 40.63840579 67.20372891 42.78782241 67.25 44.9375 C67.28822532 46.4036679 67.32727964 47.86981443 67.3671875 49.3359375 C67.46271044 52.91126164 67.54692126 56.48674748 67.625 60.0625 C68.37265625 60.03929687 69.1203125 60.01609375 69.890625 59.9921875 C70.87546875 59.97414062 71.8603125 59.95609375 72.875 59.9375 C73.84953125 59.91429687 74.8240625 59.89109375 75.828125 59.8671875 C78.6446498 60.06387219 80.23449036 60.61681084 82.625 62.0625 C82.30775263 69.99368416 79.29934072 77.0977049 75.625 84.0625 C72.34656517 86.24812322 71.38019055 86.3178045 67.57740784 86.3409729 C66.0116803 86.35771812 66.0116803 86.35771812 64.4143219 86.37480164 C63.26898483 86.37696182 62.12364777 86.37912201 60.94360352 86.38134766 C59.73658783 86.39139328 58.52957214 86.4014389 57.28598022 86.41178894 C53.96876743 86.43743224 50.65172696 86.45426628 47.33445477 86.46721697 C43.84571872 86.48288788 40.35706801 86.50968547 36.86839294 86.5352478 C30.23769144 86.58211863 23.60697332 86.6187922 16.97619051 86.65192068 C9.51084831 86.68974698 2.04560033 86.73942191 -5.41966522 86.78990483 C-34.79748949 86.9873531 -34.79748949 86.9873531 -44.15558529 87.01214027 C-49.61253836 87.02702321 -55.06338688 87.06802137 -60.51858521 87.21209717 C-61.91495382 87.23964616 -61.91495382 87.23964616 -63.3395319 87.26775169 C-65.03420933 87.30246785 -66.72868025 87.35248519 -68.42230129 87.42165565 C-71.93511753 87.47948166 -73.92958989 87.39358645 -76.79344177 85.26480103 C-78.95180902 82.25930029 -80.31014516 79.05636864 -81.625 75.625 C-82.0271875 74.64176758 -82.0271875 74.64176758 -82.4375 73.63867188 C-83.8476521 70.05213707 -85.01930628 66.92133436 -84.375 63.0625 C-80.6382157 60.57131047 -78.63048181 60.8559774 -74.1875 60.9375 C-72.91519531 60.95554688 -71.64289063 60.97359375 -70.33203125 60.9921875 C-69.35621094 61.01539063 -68.38039062 61.03859375 -67.375 61.0625 C-67.40118408 59.99813721 -67.42736816 58.93377441 -67.4543457 57.8371582 C-67.54504776 53.87708673 -67.60232089 49.91710649 -67.6496582 45.95629883 C-67.67475714 44.24422755 -67.70884429 42.53226296 -67.75219727 40.82055664 C-67.81305739 38.35536355 -67.84125432 35.89159015 -67.86328125 33.42578125 C-67.90199089 32.28330681 -67.90199089 32.28330681 -67.94148254 31.11775208 C-67.94363689 27.00837664 -67.57685317 25.30460799 -64.90698242 22.10229492 C-63.65365112 21.09259644 -63.65365112 21.09259644 -62.375 20.0625 C-62.045 19.7325 -61.715 19.4025 -61.375 19.0625 C-56.88399885 18.49648539 -53.40620939 18.47010312 -49.4375 20.75 C-45.34461621 25.33899091 -45.09113093 29.82403827 -45.1796875 35.76953125 C-45.18170166 36.41321655 -45.18371582 37.05690186 -45.18579102 37.72009277 C-45.19618826 40.10513522 -45.22411053 42.49007541 -45.25 44.875 C-45.29125 50.216875 -45.3325 55.55875 -45.375 61.0625 C-34.485 61.0625 -23.595 61.0625 -12.375 61.0625 C-12.42140625 57.22238281 -12.4678125 53.38226563 -12.515625 49.42578125 C-12.54682156 45.70582399 -12.57110894 41.98588132 -12.59472656 38.26586914 C-12.61483972 35.68084183 -12.64213386 33.09586 -12.67675781 30.51098633 C-12.72528654 26.79497045 -12.74797235 23.07955622 -12.765625 19.36328125 C-12.79659271 17.63021477 -12.79659271 17.63021477 -12.82818604 15.86213684 C-12.83043253 7.82607774 -12.83043253 7.82607774 -10.47412109 3.87548828 C-7.03218604 0.90272605 -4.58630204 -0.3298919 0 0 Z " fill="#F24E89" transform="translate(250.375,148.9375)"/>
<path d="M0 0 C1.55829104 0.00138269 1.55829104 0.00138269 3.14806271 0.00279331 C4.92971828 0.00073132 4.92971828 0.00073132 6.74736691 -0.00137234 C8.71965519 0.00402058 8.71965519 0.00402058 10.73178768 0.00952244 C12.12108006 0.00980431 13.51037259 0.00964658 14.89966488 0.00907993 C18.6825558 0.00879195 22.46541529 0.01468882 26.24829888 0.02165389 C30.19745968 0.02788728 34.14662113 0.02849122 38.09578609 0.0296793 C45.57915367 0.03279266 53.0625067 0.04100611 60.54586786 0.05102879 C69.06326025 0.06218978 77.58065332 0.06770034 86.09805119 0.07272422 C103.62367685 0.08318872 121.14928835 0.10078825 138.67490292 0.12304783 C137.98856441 3.9632752 136.45977614 5.47975785 133.44052792 7.97461033 C129.63747285 10.44827889 126.15362192 11.37281337 121.64772701 11.39047337 C120.65954479 11.39900333 119.67136257 11.4075333 118.65323544 11.41632175 C117.58039303 11.41541538 116.50755062 11.41450901 115.40219784 11.41357517 C114.26339672 11.4202924 113.1245956 11.42700962 111.95128536 11.4339304 C108.18593643 11.45293084 104.42076556 11.45683572 100.65537167 11.45898533 C98.03609297 11.465412 95.41681499 11.47214026 92.7975378 11.47915745 C87.30571999 11.49193819 81.81395039 11.49492343 76.32211971 11.4936533 C69.9878489 11.49245272 63.65391927 11.51354098 57.31973475 11.54514062 C51.21202623 11.57451727 45.10448053 11.58162742 38.99670506 11.58043385 C36.40480119 11.58279181 33.81289472 11.59162626 31.22103596 11.60709858 C27.5923347 11.62673132 23.96450743 11.62092999 20.33579159 11.60888767 C19.26902187 11.62012669 18.20225216 11.6313657 17.10315609 11.64294529 C10.87129136 11.59049016 5.789427 10.91749321 0.67490292 7.12304783 C-0.99269388 5.18962995 -2.09224466 3.38327728 -3.32509708 1.12304783 C-2.32509708 0.12304783 -2.32509708 0.12304783 0 0 Z " fill="#F64E8B" transform="translate(181.3250970840454,244.87695217132568)"/>
<path d="M0 0 C1.55829104 0.00138269 1.55829104 0.00138269 3.14806271 0.00279331 C4.92971828 0.00073132 4.92971828 0.00073132 6.74736691 -0.00137234 C8.71965519 0.00402058 8.71965519 0.00402058 10.73178768 0.00952244 C12.12108006 0.00980431 13.51037259 0.00964658 14.89966488 0.00907993 C18.6825558 0.00879195 22.46541529 0.01468882 26.24829888 0.02165389 C30.19745968 0.02788728 34.14662113 0.02849122 38.09578609 0.0296793 C45.57915367 0.03279266 53.0625067 0.04100611 60.54586786 0.05102879 C69.06326025 0.06218978 77.58065332 0.06770034 86.09805119 0.07272422 C103.62367685 0.08318872 121.14928835 0.10078825 138.67490292 0.12304783 C137.98856441 3.9632752 136.45977614 5.47975785 133.44052792 7.97461033 C129.63747285 10.44827889 126.15362192 11.37281337 121.64772701 11.39047337 C120.65954479 11.39900333 119.67136257 11.4075333 118.65323544 11.41632175 C117.58039303 11.41541538 116.50755062 11.41450901 115.40219784 11.41357517 C114.26339672 11.4202924 113.1245956 11.42700962 111.95128536 11.4339304 C108.18593643 11.45293084 104.42076556 11.45683572 100.65537167 11.45898533 C98.03609297 11.465412 95.41681499 11.47214026 92.7975378 11.47915745 C87.30571999 11.49193819 81.81395039 11.49492343 76.32211971 11.4936533 C69.9878489 11.49245272 63.65391927 11.51354098 57.31973475 11.54514062 C51.21202623 11.57451727 45.10448053 11.58162742 38.99670506 11.58043385 C36.40480119 11.58279181 33.81289472 11.59162626 31.22103596 11.60709858 C27.5923347 11.62673132 23.96450743 11.62092999 20.33579159 11.60888767 C19.26902187 11.62012669 18.20225216 11.6313657 17.10315609 11.64294529 C10.87129136 11.59049016 5.789427 10.91749321 0.67490292 7.12304783 C-0.99269388 5.18962995 -2.09224466 3.38327728 -3.32509708 1.12304783 C-2.32509708 0.12304783 -2.32509708 0.12304783 0 0 Z M-0.32509708 2.12304783 C0.00490292 3.44304783 0.33490292 4.76304783 0.67490292 6.12304783 C3.5660208 7.64468882 5.39313703 8.12304783 8.67490292 8.12304783 C9.00490292 7.79304783 9.33490292 7.46304783 9.67490292 7.12304783 C10.00490292 7.78304783 10.33490292 8.44304783 10.67490292 9.12304783 C25.35642421 9.19309532 40.03792341 9.24601505 54.71957779 9.27848434 C61.5363673 9.29396041 68.35305305 9.31506388 75.16977596 9.34936619 C81.74441646 9.38243458 88.31897725 9.39988564 94.89370441 9.40767956 C97.40601139 9.41323607 99.91831226 9.42408609 102.43057346 9.440238 C105.94094031 9.46191573 109.45085721 9.46501876 112.96127987 9.463624 C114.53005131 9.47980274 114.53005131 9.47980274 116.1305151 9.49630833 C117.0854385 9.49218433 118.0403619 9.48806034 119.02422237 9.48381138 C120.27002559 9.48795945 120.27002559 9.48795945 121.54099655 9.49219131 C124.16847961 9.03766422 124.88559145 8.01709598 126.67490292 6.12304783 C129.36240292 6.43554783 129.36240292 6.43554783 131.67490292 7.12304783 C131.67490292 6.46304783 131.67490292 5.80304783 131.67490292 5.12304783 C132.99490292 4.79304783 134.31490292 4.46304783 135.67490292 4.12304783 C135.67490292 3.46304783 135.67490292 2.80304783 135.67490292 2.12304783 C90.79490292 2.12304783 45.91490292 2.12304783 -0.32509708 2.12304783 Z " fill="#DB4A7E" transform="translate(181.3250970840454,244.87695217132568)"/>
<path d="M0 0 C21.84484357 -0.09356628 43.68965396 -0.16403941 65.53465748 -0.20724869 C75.67836531 -0.22784747 85.82194841 -0.25591665 95.96557617 -0.30175781 C104.8098707 -0.34170786 113.65407487 -0.36745232 122.49845713 -0.37635398 C127.17870474 -0.38155491 131.85869389 -0.39372278 136.53885841 -0.42292023 C140.95065836 -0.45021857 145.36209517 -0.45841607 149.77397156 -0.45243073 C151.38676621 -0.45352455 152.99957394 -0.46139222 154.61229515 -0.4768219 C166.35385462 -0.58357923 176.37405208 0.71549887 186 8 C185.01 8.33 184.02 8.66 183 9 C181.34375 8.07421875 181.34375 8.07421875 179.5 6.6875 C174.64595173 3.42731833 169.72172359 2.70469757 164 2 C163.67 2.66 163.34 3.32 163 4 C163 3.34 163 2.68 163 2 C82.315 1.505 82.315 1.505 0 1 C0 0.67 0 0.34 0 0 Z " fill="#DB4D84" transform="translate(165,82)"/>
<path d="M0 0 C0.33 0 0.66 0 1 0 C1.0885085 4.08319218 1.14089063 8.16613163 1.1875 12.25 C1.21263672 13.38953125 1.23777344 14.5290625 1.26367188 15.703125 C1.38207982 29.59632382 -1.26789131 41.37240066 -11.0625 51.4375 C-15.53846154 55.84615385 -15.53846154 55.84615385 -19 57 C-17.71744377 53.15233131 -15.70395995 51.94737832 -12.59375 49.5 C-10.73155509 47.98483163 -10.73155509 47.98483163 -10 45 C-9.01 45 -8.02 45 -7 45 C-6.67 42.69 -6.34 40.38 -6 38 C-5.34 38 -4.68 38 -4 38 C-3.7834375 36.824375 -3.7834375 36.824375 -3.5625 35.625 C-3 33 -3 33 -2 31 C-1.85698589 28.76171863 -1.77352607 26.51952039 -1.71875 24.27734375 C-1.70034058 23.61666397 -1.68193115 22.95598419 -1.66296387 22.27528381 C-1.58420172 19.44467507 -1.51640048 16.61382829 -1.44775391 13.78295898 C-1.3961356 11.71846352 -1.33885482 9.65417941 -1.28125 7.58984375 C-1.25095703 6.35097412 -1.22066406 5.11210449 -1.18945312 3.83569336 C-1 1 -1 1 0 0 Z " fill="#D54A75" transform="translate(368,233)"/>
<path d="M0 0 C2.99080504 2.99080504 2.9731138 5.19676756 3.11352539 9.39160156 C3.10567017 11.37111816 3.10567017 11.37111816 3.09765625 13.390625 C3.09553383 14.44754547 3.09553383 14.44754547 3.09336853 15.52581787 C3.08778933 17.76725584 3.07524073 20.00859243 3.0625 22.25 C3.05748231 23.77343605 3.05291987 25.29687368 3.04882812 26.8203125 C3.03782674 30.54690772 3.02057646 34.27344396 3 38 C2.34 38 1.68 38 1 38 C0.67 25.46 0.34 12.92 0 0 Z " fill="#CA4A77" transform="translate(314,172)"/>
<path d="M0 0 C4.95 0 9.9 0 15 0 C15 0.99 15 1.98 15 3 C10.0169614 7.54973089 7.67479877 9.14510432 1 9 C1 7.68 1 6.36 1 5 C1.66 5 2.32 5 3 5 C3.33 4.34 3.66 3.68 4 3 C5.65 3.99 7.3 4.98 9 6 C9 5.34 9 4.68 9 4 C9.99 3.67 10.98 3.34 12 3 C12.33 2.34 12.66 1.68 13 1 C8.71 1 4.42 1 0 1 C0 0.67 0 0.34 0 0 Z " fill="#DF5183" transform="translate(304,246)"/>
<path d="M0 0 C1.09731445 0.01353516 1.09731445 0.01353516 2.21679688 0.02734375 C3.99884298 0.05063847 5.78071759 0.0864981 7.5625 0.125 C4.09670355 2.43553097 2.47238429 2.40398455 -1.625 2.5625 C-10.54910528 3.10074348 -10.54910528 3.10074348 -18.03125 7.65625 C-19.59992045 9.45584871 -19.59992045 9.45584871 -21.4375 12.125 C-21.7675 11.135 -22.0975 10.145 -22.4375 9.125 C-21.43413319 7.98439457 -20.4086869 6.86320128 -19.375 5.75 C-18.80652344 5.12351562 -18.23804688 4.49703125 -17.65234375 3.8515625 C-12.43369872 -0.21658759 -6.31024106 -0.15010637 0 0 Z " fill="#DE527A" transform="translate(176.4375,100.875)"/>
<path d="M0 0 C0.33 0 0.66 0 1 0 C1.02578125 0.7734375 1.0515625 1.546875 1.078125 2.34375 C1.67629252 13.32828074 4.97565339 20.37687072 13 28 C11.02 27.67 9.04 27.34 7 27 C6.34 25.02 5.68 23.04 5 21 C4.34 21 3.68 21 3 21 C-0.85880936 14.24708362 -0.28506966 7.61241576 0 0 Z " fill="#CC4C7C" transform="translate(150,249)"/>
<path d="M0 0 C0 0.66 0 1.32 0 2 C-1.86967605 2.98929461 -3.74601378 3.96600469 -5.625 4.9375 C-7.19121094 5.75541016 -7.19121094 5.75541016 -8.7890625 6.58984375 C-11.92416918 7.96669717 -14.61454632 8.59842216 -18 9 C-14.87741538 5.54872227 -11.40291987 3.46763996 -7 2 C-6.67 1.34 -6.34 0.68 -6 0 C-3 -1 -3 -1 0 0 Z " fill="#E44D83" transform="translate(349,289)"/>
<path d="M0 0 C2.5625 1.5 2.5625 1.5 4 3 C3.67 3.99 3.34 4.98 3 6 C2.67 5.01 2.34 4.02 2 3 C1.06027344 3.25136719 1.06027344 3.25136719 0.1015625 3.5078125 C-0.71570313 3.71148437 -1.53296875 3.91515625 -2.375 4.125 C-3.59316406 4.43824219 -3.59316406 4.43824219 -4.8359375 4.7578125 C-5.55007813 4.83773437 -6.26421875 4.91765625 -7 5 C-7.66 4.34 -8.32 3.68 -9 3 C-9.928125 3.99 -9.928125 3.99 -10.875 5 C-13 7 -13 7 -15 7 C-12.05998912 -0.10502628 -7.15719923 -1.0243331 0 0 Z " fill="#E14E85" transform="translate(310,168)"/>
<path d="M0 0 C7.1555306 -0.48512072 7.1555306 -0.48512072 10.9375 1.6875 C13.18903896 4.21195277 13.72253508 5.67042093 14 9 C11 9 11 9 8 8 C8.185625 7.360625 8.37125 6.72125 8.5625 6.0625 C8.706875 5.381875 8.85125 4.70125 9 4 C7.35920758 2.35920758 5.22231235 2.39887658 3 2 C3 2.66 3 3.32 3 4 C3.66 4 4.32 4 5 4 C5 4.66 5 5.32 5 6 C3.35 5.67 1.7 5.34 0 5 C0 3.35 0 1.7 0 0 Z " fill="#E54D83" transform="translate(190,168)"/>
<path d="M0 0 C0.66 0.33 1.32 0.66 2 1 C2.54619824 9.64206989 2.88765952 16.22919155 -3 23 C-3.33 22.34 -3.66 21.68 -4 21 C-3.319375 19.3603125 -3.319375 19.3603125 -2.625 17.6875 C-0.32210017 11.99860135 -0.26824984 6.06799644 0 0 Z " fill="#DC5385" transform="translate(349,244)"/>
<path d="M0 0 C3 1 3 1 4 3 C6.71446979 3.31241455 9.33909361 3.51336592 12.0625 3.625 C13.20041992 3.68300781 13.20041992 3.68300781 14.36132812 3.7421875 C16.24047195 3.83673562 18.12020336 3.91946756 20 4 C20 4.33 20 4.66 20 5 C12.74 5 5.48 5 -2 5 C-1.34 3.35 -0.68 1.7 0 0 Z " fill="#F24881" transform="translate(196,96)"/>
<path d="M0 0 C0.7734375 0.2165625 0.7734375 0.2165625 1.5625 0.4375 C5.68303014 1.38839157 9.76973793 2 14 2 C14.33 2.99 14.66 3.98 15 5 C12.5625 6.375 12.5625 6.375 9 7 C5.69645316 5.39388536 2.80734037 3.36440444 0 1 C0 0.67 0 0.34 0 0 Z " fill="#E95184" transform="translate(272,303)"/>
<path d="M0 0 C12.42569511 6.75934803 12.42569511 6.75934803 17 10 C17 10.33 17 10.66 17 11 C15.35 11 13.7 11 12 11 C12 10.34 12 9.68 12 9 C11.42765625 8.7215625 10.8553125 8.443125 10.265625 8.15625 C8.03382434 7.01726208 5.89129126 5.80063617 3.75 4.5 C3.04359375 4.0771875 2.3371875 3.654375 1.609375 3.21875 C1.07828125 2.8165625 0.5471875 2.414375 0 2 C0 1.34 0 0.68 0 0 Z " fill="#D44F7E" transform="translate(278,284)"/>
<path d="M0 0 C2 1 4 2 6 3 C6 3.66 6 4.32 6 5 C3.29120665 6.35439668 0.99066732 6.06501451 -2 6 C-2 4.68 -2 3.36 -2 2 C-1.34 2 -0.68 2 0 2 C0 1.34 0 0.68 0 0 Z " fill="#ED4C83" transform="translate(307,249)"/>
<path d="M0 0 C2.31 0.33 4.62 0.66 7 1 C6.67 2.32 6.34 3.64 6 5 C6.99 5.33 7.98 5.66 9 6 C8.01 6.495 8.01 6.495 7 7 C4.5249829 5.88568235 2.32116581 4.41849022 0 3 C0 2.01 0 1.02 0 0 Z " fill="#E64B7C" transform="translate(147,288)"/>
<path d="M0 0 C0.33 0 0.66 0 1 0 C1.33 2.97 1.66 5.94 2 9 C0.68 9.33 -0.64 9.66 -2 10 C-1.54177532 6.53058454 -1.10868317 3.32604951 0 0 Z " fill="#E1568D" transform="translate(133,107)"/>
<path d="M0 0 C0.59425781 0.22042969 1.18851563 0.44085938 1.80078125 0.66796875 C1.25808594 1.06628906 0.71539062 1.46460937 0.15625 1.875 C-0.91689453 2.66970703 -0.91689453 2.66970703 -2.01171875 3.48046875 C-3.07326172 4.26357422 -3.07326172 4.26357422 -4.15625 5.0625 C-5.98453268 6.49925752 -7.59818563 7.98612638 -9.19921875 9.66796875 C-8.6159748 6.44255946 -7.67707077 4.69220765 -5.38671875 2.35546875 C-4.88527344 1.82308594 -4.38382813 1.29070312 -3.8671875 0.7421875 C-2.19921875 -0.33203125 -2.19921875 -0.33203125 0 0 Z " fill="#D34A78" transform="translate(163.19921875,103.33203125)"/>
<path d="M0 0 C2.76276177 0.52268466 5.3260876 1.10869587 8 2 C8 1.34 8 0.68 8 0 C8.66 0.33 9.32 0.66 10 1 C9.67 2.32 9.34 3.64 9 5 C2.25 2.25 2.25 2.25 0 0 Z " fill="#E35081" transform="translate(182,251)"/>
<path d="M0 0 C3.77491089 1.25830363 5.46183391 2.96830161 8 6 C7.640625 8.16796875 7.640625 8.16796875 7 10 C5.83043409 8.52312468 4.66441854 7.04343707 3.5 5.5625 C2.8503125 4.73878906 2.200625 3.91507812 1.53125 3.06640625 C0 1 0 1 0 0 Z " fill="#DC5481" transform="translate(136,277)"/>
<path d="M0 0 C4.19469571 0.59924224 8.00999834 1.57499941 12 3 C12 3.33 12 3.66 12 4 C7.75519536 4.33292585 5.64457375 4.43885872 2.0625 2 C1.381875 1.34 0.70125 0.68 0 0 Z " fill="#D95383" transform="translate(314,330)"/>
<path d="M0 0 C2.97 1.65 5.94 3.3 9 5 C9 5.99 9 6.98 9 8 C7.49460339 7.05016642 5.99579653 6.08988109 4.5 5.125 C3.6646875 4.59132813 2.829375 4.05765625 1.96875 3.5078125 C1.3190625 3.01023437 0.669375 2.51265625 0 2 C0 1.34 0 0.68 0 0 Z " fill="#D15181" transform="translate(295,295)"/>
<path d="M0 0 C3.0109362 2.0072908 3.63016497 2.83884224 5 6 C1.62496331 4.8141763 -0.64722731 3.72426311 -3 1 C-2.01 0.67 -1.02 0.34 0 0 Z " fill="#DA5181" transform="translate(306,322)"/>
<path d="M0 0 C2.8086289 2.8086289 2.72711179 5.11134294 3 9 C2.34 9.99 1.68 10.98 1 12 C0.45533613 7.915021 0 4.1274515 0 0 Z " fill="#E23F67" transform="translate(314,172)"/>
<path d="M0 0 C2.88437779 1.29299694 4.87219421 2.65941363 7 5 C4.03 4.505 4.03 4.505 1 4 C0.67 2.68 0.34 1.36 0 0 Z " fill="#DB4A7A" transform="translate(156,272)"/>
</svg>
