<?xml version="1.0" encoding="UTF-8"?>
<svg version="1.1" xmlns="http://www.w3.org/2000/svg" width="500" height="500">
<path d="M0 0 C2.55281294 -0.00407267 5.10562412 -0.00941843 7.65843201 -0.01593018 C13.83212275 -0.02811773 20.00566958 -0.02643421 26.17936197 -0.01769225 C31.20078339 -0.01087986 36.2221742 -0.01001422 41.24359894 -0.0132637 C41.9619115 -0.0137234 42.68022405 -0.0141831 43.42030366 -0.01465673 C44.88010008 -0.01561602 46.33989649 -0.01658867 47.7996929 -0.0175745 C61.4407561 -0.02609925 75.0817585 -0.01633901 88.72281173 -0.0001734 C100.40166395 0.01323863 112.08042672 0.01088874 123.75927734 -0.00292969 C137.36220877 -0.01901743 150.96508717 -0.02528758 164.56802678 -0.0160929 C166.02082776 -0.01513736 167.47362875 -0.01419425 168.92642975 -0.0132637 C169.64101848 -0.01280088 170.35560721 -0.01233805 171.09185015 -0.0118612 C176.10336838 -0.00928173 181.11485268 -0.01361942 186.12636566 -0.02070236 C192.88004222 -0.03003901 199.6335247 -0.02330577 206.38719368 -0.00601959 C208.85863275 -0.00206834 211.33008609 -0.00316532 213.80151939 -0.00980759 C235.33441643 -0.06232545 252.34856554 1.80934059 269.31738281 16.38818359 C270.57035156 17.42458984 270.57035156 17.42458984 271.84863281 18.48193359 C281.69176626 26.90196341 288.46763471 36.55505972 291.44238281 49.26318359 C291.61125 49.91287109 291.78011719 50.56255859 291.95410156 51.23193359 C295.37256793 65.60564259 294.47906099 81.19010122 294.51025391 95.87060547 C294.51817547 97.98491035 294.5264456 100.09921396 294.53503418 102.21351624 C294.56099095 109.09464269 294.57652323 115.97577448 294.59082031 122.85693359 C294.59618861 125.24018862 294.60156612 127.62344362 294.60695267 130.00669861 C294.62853201 139.92217739 294.64726801 149.83765471 294.65857506 159.75315094 C294.67482332 173.89977171 294.7080798 188.04611846 294.76497591 202.19263601 C294.80375991 212.17953787 294.82321706 222.16636662 294.82849562 232.15334177 C294.83213394 238.10169717 294.84399584 244.0497585 294.87659836 249.99803162 C294.90683281 255.59283674 294.91293616 261.18717198 294.9012146 266.78204155 C294.90099523 268.82330014 294.90918533 270.86458162 294.92686844 272.90576363 C295.07642646 291.17737018 292.35214709 308.42236473 279.31738281 322.38818359 C278.65738281 322.38818359 277.99738281 322.38818359 277.31738281 322.38818359 C276.98738281 323.37818359 276.65738281 324.36818359 276.31738281 325.38818359 C275.65738281 325.38818359 274.99738281 325.38818359 274.31738281 325.38818359 C274.31738281 326.04818359 274.31738281 326.70818359 274.31738281 327.38818359 C272.4168242 329.06816863 270.52418195 330.61202152 268.50488281 332.13818359 C267.91175293 332.58701904 267.31862305 333.03585449 266.70751953 333.49829102 C259.10709766 339.14417334 251.46290776 343.14877526 242.46582031 346.05615234 C241.77576904 346.28250366 241.08571777 346.50885498 240.37475586 346.74206543 C238.69006738 347.29414732 237.00387681 347.84164203 235.31738281 348.38818359 C235.31151657 348.96145889 235.30565033 349.53473419 235.29960632 350.12538147 C235.23548916 356.1119832 235.1510228 362.09805645 235.05493164 368.08422852 C235.02175313 370.3159283 234.99369933 372.54771058 234.97094727 374.77954102 C234.93727155 377.99449694 234.88494797 381.20870179 234.82910156 384.42333984 C234.82271164 385.41527847 234.81632172 386.4072171 234.80973816 387.42921448 C234.68103031 393.54429421 234.34501593 399.39802119 229.73925781 403.94677734 C225.43031281 406.21199376 222.27571889 407.14453994 217.31738281 406.38818359 C210.3630937 403.75912308 204.3384788 399.49444321 198.23535156 395.32568359 C194.38700405 392.77042206 190.40460067 390.53500509 186.31738281 388.38818359 C186.31738281 387.72818359 186.31738281 387.06818359 186.31738281 386.38818359 C185.73956055 386.2713623 185.16173828 386.15454102 184.56640625 386.03417969 C182.15607655 385.34185094 180.44659855 384.39436104 178.33300781 383.05224609 C177.57101074 382.57062012 176.80901367 382.08899414 176.02392578 381.59277344 C175.2132666 381.07150879 174.40260742 380.55024414 173.56738281 380.01318359 C172.72191895 379.47516113 171.87645508 378.93713867 171.00537109 378.3828125 C164.99197923 374.53148835 159.11459132 370.51076848 153.2668457 366.41430664 C146.97077808 362.05219553 140.40383138 358.19985226 133.76660156 354.38427734 C131.57773849 353.1175627 129.42161276 351.79100356 127.31738281 350.38818359 C124.51257637 350.09662746 124.51257637 350.09662746 121.28031921 350.16113281 C120.01747604 350.1612738 118.75463287 350.16141479 117.45352173 350.16156006 C116.05096311 350.17182884 114.64840576 350.18227173 113.24584961 350.19287109 C111.77060649 350.19670921 110.29536077 350.19963692 108.82011414 350.20172119 C105.63946926 350.20805003 102.45893021 350.2205986 99.27832603 350.237854 C94.23770824 350.26491065 89.19712569 350.27669174 84.15644836 350.28613281 C72.53164388 350.31023597 60.90692995 350.35415881 49.28218842 350.39859009 C38.65667516 350.43904948 28.03119435 350.47519977 17.40561992 350.49501991 C12.40758975 350.50491957 7.40972548 350.52454425 2.41176164 350.55187988 C-0.71914582 350.56694317 -3.85003148 350.57345929 -6.98097038 350.57781219 C-8.41834486 350.58151438 -9.85571589 350.5886303 -11.29305267 350.59967804 C-23.88843549 350.69332278 -36.39775989 350.47842404 -47.68261719 344.38818359 C-48.58882812 343.93185547 -49.49503906 343.47552734 -50.42871094 343.00537109 C-56.17078059 340.02915589 -61.04953729 336.91830616 -65.68261719 332.38818359 C-65.68261719 331.72818359 -65.68261719 331.06818359 -65.68261719 330.38818359 C-66.67261719 330.05818359 -67.66261719 329.72818359 -68.68261719 329.38818359 C-76.6721808 321.97897569 -81.43590251 312.79658528 -84.93261719 302.63818359 C-85.30205444 301.5855835 -85.30205444 301.5855835 -85.67895508 300.51171875 C-90.15798156 286.75747163 -89.97704745 272.60362572 -89.95727539 258.31640625 C-89.96163086 256.22210001 -89.96681677 254.12779537 -89.97276306 252.03349304 C-89.98607386 246.38258338 -89.98674065 240.73174092 -89.98419976 235.08081865 C-89.98312475 230.3470686 -89.98802687 225.61333185 -89.99280518 220.87958467 C-90.00387279 209.70405529 -90.00435314 198.52855954 -89.99829102 187.35302734 C-89.9922518 175.85934046 -90.00456732 164.36577601 -90.02586108 152.87211001 C-90.04352516 142.97016552 -90.04947092 133.06825983 -90.04622334 123.16630018 C-90.04441815 117.26719094 -90.04697002 111.36816908 -90.06093788 105.46907425 C-90.07359024 99.91868853 -90.07150256 94.3684926 -90.05852699 88.81810951 C-90.0561778 86.79299541 -90.05883568 84.76786764 -90.06715012 82.74276924 C-90.15507512 59.64394638 -87.30815347 38.96223792 -70.81542969 21.39990234 C-64.83120824 15.81377288 -57.64379992 11.63079792 -50.68261719 7.38818359 C-49.99554688 6.94087891 -49.30847656 6.49357422 -48.60058594 6.03271484 C-34.88651521 -2.0471327 -15.18778539 -0.04096575 0 0 Z M43.38242722 33.28696251 C37.39350788 33.36304074 31.40454978 33.43402503 25.41552734 33.50146484 C18.25257317 33.58234891 11.0898286 33.67335154 3.92712402 33.7739563 C1.43294097 33.8079329 -1.0612836 33.8390093 -3.55554199 33.86691284 C-6.88326546 33.90520592 -10.21058359 33.9554041 -13.53808594 34.00927734 C-14.48094955 34.01765625 -15.42381317 34.02603516 -16.39524841 34.03466797 C-21.53361796 34.13333553 -25.81066254 34.73675405 -30.68261719 36.38818359 C-31.41609375 36.61119141 -32.14957031 36.83419922 -32.90527344 37.06396484 C-37.72542334 38.73208466 -41.01873497 40.81589843 -44.68261719 44.38818359 C-44.68261719 45.04818359 -44.68261719 45.70818359 -44.68261719 46.38818359 C-45.34261719 46.38818359 -46.00261719 46.38818359 -46.68261719 46.38818359 C-48.18248676 48.05414303 -48.18248676 48.05414303 -49.62011719 50.26318359 C-50.12414062 50.98248047 -50.62816406 51.70177734 -51.14746094 52.44287109 C-56.63543669 62.97196453 -56.09791708 73.61163912 -56.0390625 85.1796875 C-56.0398543 87.18473398 -56.04195439 89.1897803 -56.04525757 91.19482422 C-56.05037488 96.62082698 -56.03688646 102.04663881 -56.01973057 107.47261095 C-56.00463574 113.16926623 -56.00586708 118.86591962 -56.00506592 124.56259155 C-56.00137731 134.13388297 -55.98643554 143.70510252 -55.96386719 153.27636719 C-55.93504838 165.52259035 -55.92464681 177.76875553 -55.92018509 190.01500893 C-55.91618778 200.58442493 -55.90368567 211.15382857 -55.88983822 221.72323561 C-55.8857607 225.09942185 -55.88282411 228.47560767 -55.88004303 231.8517952 C-55.87510526 237.18211283 -55.86482807 242.51239646 -55.85060501 247.84269714 C-55.84612847 249.78717618 -55.84325454 251.73165975 -55.84219742 253.67614365 C-55.83629913 262.54630132 -55.78397937 271.41081401 -55.33660889 280.27133179 C-55.27570446 281.49605383 -55.21480003 282.72077587 -55.15205002 283.9826107 C-53.73384418 294.27120378 -46.45354041 304.97627763 -38.24511719 311.26318359 C-31.58599806 315.45515592 -25.47504496 316.83509934 -17.74633789 316.91235352 C-16.88617349 316.93229874 -16.02600908 316.95224396 -15.13977909 316.97279358 C-12.2960778 317.03513294 -9.45247376 317.07711982 -6.60839844 317.11865234 C-4.58702463 317.15811005 -2.5656724 317.19868697 -0.54434204 317.24031067 C4.85675648 317.34758449 10.25801285 317.43642762 15.65950394 317.52130127 C20.11851007 317.59378667 24.57727348 317.67767782 29.03608227 317.76130486 C49.70952535 318.14638701 70.382137 318.4595081 91.05957031 318.43896484 C91.78436144 318.43829702 92.50915257 318.4376292 93.25590706 318.43694115 C100.43975172 318.42754457 107.62290713 318.38895594 114.80639648 318.31469727 C115.95282623 318.30613205 117.09925598 318.29756683 118.28042603 318.28874207 C120.35365811 318.27248595 122.4268543 318.24802799 124.49984741 318.21260071 C133.3994822 318.14878299 140.52616493 319.48534823 148.25488281 324.07568359 C148.85623047 324.43090088 149.45757812 324.78611816 150.07714844 325.15209961 C154.42476494 327.7545216 158.58585786 330.57750715 162.69628906 333.54052734 C167.54773522 336.96039923 172.58380283 340.10295171 177.59228516 343.28613281 C179.2632708 344.35361501 180.92526483 345.43513186 182.58691406 346.51708984 C183.57046875 347.15517578 184.55402344 347.79326172 185.56738281 348.45068359 C186.43878906 349.01916016 187.31019531 349.58763672 188.20800781 350.17333984 C190.20053667 351.5545416 190.20053667 351.5545416 192.31738281 351.38818359 C192.31738281 352.04818359 192.31738281 352.70818359 192.31738281 353.38818359 C195.28738281 354.70818359 198.25738281 356.02818359 201.31738281 357.38818359 C202.81631572 354.39031777 202.39070074 351.67208697 202.34472656 348.33349609 C202.33207753 346.89990478 202.31971678 345.4663109 202.30761719 344.03271484 C202.28281881 341.77237971 202.25486793 339.51217766 202.22143555 337.25195312 C202.19117474 335.07079227 202.17343843 332.88980033 202.15722656 330.70849609 C202.13196899 328.74807373 202.13196899 328.74807373 202.10620117 326.74804688 C202.30416963 323.59840298 202.51288112 321.9309248 204.31738281 319.38818359 C211.234492 315.35714595 219.070074 315.38429909 226.89355469 314.74755859 C235.14868036 313.92754611 243.72493919 312.0670254 249.31738281 305.38818359 C249.31738281 304.72818359 249.31738281 304.06818359 249.31738281 303.38818359 C250.30738281 303.05818359 251.29738281 302.72818359 252.31738281 302.38818359 C263.3029385 287.96964175 262.47948855 271.38153828 262.45019531 254.04443359 C262.45087344 252.58605941 262.45184762 251.12768533 262.45309448 249.66931152 C262.45455883 246.61693238 262.4524655 243.5645827 262.44775391 240.51220703 C262.442178 236.72796005 262.44536031 232.94378536 262.45120144 229.15954113 C262.47294315 212.4244258 262.26196894 195.71487752 261.75916862 178.98739052 C261.37079553 165.85877793 261.21635057 152.73642294 261.15658569 139.6023674 C261.14164453 136.34676416 261.12395084 133.09118673 261.10546875 129.83560181 C261.00650325 112.0263589 261.00650325 112.0263589 260.99145508 103.27709961 C260.98136763 97.76069649 260.95209829 92.2446826 260.91013527 86.72843361 C260.89791004 84.65654245 260.89268832 82.58459653 260.8949337 80.51267052 C260.89729241 77.63960929 260.87510286 74.76768259 260.84741211 71.89477539 C260.85401352 71.06110947 260.86061493 70.22744354 260.86741638 69.36851501 C260.73558367 61.01023616 257.2322976 54.45676467 252.87988281 47.45068359 C252.32429688 46.53416016 251.76871094 45.61763672 251.19628906 44.67333984 C249.07726679 42.09615059 247.47573091 41.33622976 244.31738281 40.38818359 C244.31738281 39.72818359 244.31738281 39.06818359 244.31738281 38.38818359 C242.96610024 37.75697223 241.61116234 37.13358525 240.25488281 36.51318359 C239.50078125 36.16513672 238.74667969 35.81708984 237.96972656 35.45849609 C232.07613248 33.0802269 226.68606873 32.09510599 220.35717773 32.14526367 C219.58486439 32.14339082 218.81255104 32.14151796 218.01683426 32.13958836 C215.44374007 32.135938 212.87092175 32.14671991 210.29785156 32.15771484 C208.44694537 32.15853206 206.59603869 32.15856249 204.74513245 32.15786743 C199.71732099 32.15892356 194.6896282 32.17331336 189.66184998 32.19074631 C186.49490253 32.20071501 183.32796976 32.20698237 180.16101074 32.21194458 C134.56579571 32.28364927 88.9737479 32.70606943 43.38242722 33.28696251 Z " fill="#5A84FC" transform="translate(138.6826171875,50.61181640625)"/>
<path d="M0 0 C5.66068644 3.97978392 7.61815288 8.67134893 8.7890625 15.2578125 C8.95652693 18.0159501 9.04399224 20.66539027 9.01611328 23.41796875 C9.01640533 24.18966904 9.01669739 24.96136932 9.01699829 25.75645447 C9.01561781 28.27785953 9.00011783 30.7989598 8.984375 33.3203125 C8.9806403 35.08007648 8.97779549 36.83984256 8.97579956 38.59960938 C8.96819908 43.20930826 8.94858173 47.81887917 8.9263916 52.42852783 C8.90223875 57.9711289 8.89313511 63.513773 8.88148499 69.05641174 C8.86215498 77.45696741 8.8238075 85.85724279 8.7890625 94.2578125 C25.9490625 93.9278125 43.1090625 93.5978125 60.7890625 93.2578125 C60.30327619 77.25239925 60.30327619 77.25239925 59.77050781 61.24853516 C59.71771652 59.22302497 59.6665064 57.19747271 59.6171875 55.171875 C59.57513184 54.14344482 59.53307617 53.11501465 59.48974609 52.05541992 C59.35025318 45.25108544 60.1200709 39.15099896 63.7890625 33.2578125 C64.7790625 32.9278125 65.7690625 32.5978125 66.7890625 32.2578125 C66.7890625 31.5978125 66.7890625 30.9378125 66.7890625 30.2578125 C71.71838083 26.47959675 76.32538072 26.6475938 82.328125 26.7734375 C88.58641664 27.64931579 91.694974 30.89351904 95.7265625 35.4453125 C98.56372023 42.9554359 97.9586849 52.00262047 98.10546875 59.95703125 C98.12624985 60.9180928 98.14703094 61.87915436 98.16844177 62.86933899 C98.23304903 65.89460136 98.29240244 68.91993922 98.3515625 71.9453125 C98.39483253 74.0149813 98.43844929 76.08464288 98.48242188 78.15429688 C98.58863719 83.18872767 98.69014569 88.22323323 98.7890625 93.2578125 C99.43979736 93.27239502 100.09053223 93.28697754 100.76098633 93.30200195 C103.70844556 93.37645799 106.65476892 93.47312516 109.6015625 93.5703125 C110.62572266 93.59287109 111.64988281 93.61542969 112.70507812 93.63867188 C113.68798828 93.67412109 114.67089844 93.70957031 115.68359375 93.74609375 C116.58956299 93.77227783 117.49553223 93.79846191 118.42895508 93.82543945 C121.21724541 94.33625586 122.13967757 94.97950134 123.7890625 97.2578125 C124.49531142 103.15057689 122.84638636 107.78788696 120.7890625 113.1953125 C120.50289063 113.97455078 120.21671875 114.75378906 119.921875 115.55664062 C119.22097376 117.46075567 118.50640946 119.359832 117.7890625 121.2578125 C117.1290625 121.2578125 116.4690625 121.2578125 115.7890625 121.2578125 C115.7271875 122.2890625 115.6653125 123.3203125 115.6015625 124.3828125 C114.39858771 130.1200769 111.70334945 132.9816212 106.7890625 136.2578125 C104.90898144 136.51837486 104.90898144 136.51837486 102.74818611 136.53349209 C101.5107296 136.54931557 101.5107296 136.54931557 100.24827397 136.56545871 C98.88910196 136.56767251 98.88910196 136.56767251 97.50247192 136.56993103 C96.53971812 136.57925126 95.57696432 136.58857149 94.58503616 136.59817415 C91.34461374 136.62698874 88.1042853 136.64148973 84.86376953 136.65600586 C82.54633998 136.67348146 80.22891637 136.69176024 77.91149902 136.71078491 C71.60579481 136.75958019 65.30008244 136.79522195 58.99427271 136.8271873 C55.05755741 136.84760086 51.1208656 136.87058374 47.18416977 136.8944416 C36.28613985 136.96020825 25.38811029 137.02301707 14.48999214 137.07228756 C13.44375252 137.07702033 13.44375252 137.07702033 12.37637674 137.08184871 C10.96237049 137.08823156 9.54836422 137.09461205 8.13435794 137.10099023 C7.08147625 137.10574494 7.08147625 137.10574494 6.00732422 137.1105957 C5.30454719 137.11376687 4.60177016 137.11693803 3.87769686 137.12020529 C-7.51292065 137.17222137 -18.90324869 137.24775878 -30.29365633 137.33365291 C-41.98594691 137.4215145 -53.67821546 137.4901679 -65.37072861 137.54056269 C-71.93655248 137.56924257 -78.50209597 137.60598804 -85.06774521 137.66239738 C-91.24172283 137.71484477 -97.41535089 137.74344196 -103.58953857 137.75353622 C-105.85796898 137.761353 -108.12638816 137.77778717 -110.39468765 137.80338097 C-113.48702619 137.8369507 -116.57789861 137.83970131 -119.67037964 137.83457947 C-120.57203287 137.85167038 -121.4736861 137.8687613 -122.40266216 137.88637012 C-126.81631413 137.84540551 -128.62722006 137.71456426 -132.20764351 134.91292667 C-134.42709722 131.97131998 -135.78549855 129.24649995 -137.140625 125.8203125 C-137.86765625 123.98339844 -137.86765625 123.98339844 -138.609375 122.109375 C-138.85139648 121.47676758 -139.09341797 120.84416016 -139.34277344 120.19238281 C-140.08683235 118.25548307 -140.85816924 116.33109141 -141.6328125 114.40625 C-144.42947798 107.22562241 -145.65776811 103.59830432 -143.2109375 96.2578125 C-140.2914332 95.2846444 -138.15648799 95.0648579 -135.10546875 94.94140625 C-134.12255859 94.89951172 -133.13964844 94.85761719 -132.12695312 94.81445312 C-131.10279297 94.77513672 -130.07863281 94.73582031 -129.0234375 94.6953125 C-127.98767578 94.65212891 -126.95191406 94.60894531 -125.88476562 94.56445312 C-123.3269556 94.45836884 -120.76904905 94.35631104 -118.2109375 94.2578125 C-118.21981995 93.58209198 -118.22870239 92.90637146 -118.237854 92.21017456 C-118.3264286 85.16982492 -118.38671421 78.12963388 -118.43066406 71.08886719 C-118.45076465 68.46217417 -118.47804954 65.83552581 -118.51269531 63.20898438 C-118.56127914 59.43087738 -118.58392259 55.65336266 -118.6015625 51.875 C-118.62220764 50.70290985 -118.64285278 49.5308197 -118.66412354 48.32321167 C-118.66620067 40.75587433 -117.95841616 37.03218694 -112.578125 31.61328125 C-106.43445418 26.80449178 -101.96406026 26.42226293 -94.2109375 27.2578125 C-89.2671817 28.95871884 -86.89903341 31.1577623 -84.12792969 35.58789062 C-81.39665692 41.19445216 -81.70944426 46.73012111 -81.8203125 52.8515625 C-81.82597229 54.03882935 -81.83163208 55.22609619 -81.83746338 56.44934082 C-81.85974741 60.21925181 -81.90993165 63.98819163 -81.9609375 67.7578125 C-81.98101268 70.32290288 -81.99926166 72.88800825 -82.015625 75.453125 C-82.05617415 81.72202393 -82.1344866 87.98883879 -82.2109375 94.2578125 C-64.7209375 94.2578125 -47.2309375 94.2578125 -29.2109375 94.2578125 C-29.31921875 88.286875 -29.31921875 88.286875 -29.4296875 82.1953125 C-29.48741599 78.94456115 -29.54471409 75.69380283 -29.60173035 72.44303894 C-29.66128665 69.05396382 -29.72177038 65.66491211 -29.78369141 62.27587891 C-29.92547388 54.50099103 -30.04809597 46.72616471 -30.15234375 38.95068359 C-30.20897126 35.38173474 -30.29366923 31.81435711 -30.3828125 28.24609375 C-30.42013274 26.10418151 -30.45663902 23.96225488 -30.4921875 21.8203125 C-30.52380981 20.8622168 -30.55543213 19.90412109 -30.5880127 18.91699219 C-30.66680281 12.03784234 -29.32431328 6.47360196 -24.4296875 1.41796875 C-23.57890625 0.87462891 -23.57890625 0.87462891 -22.7109375 0.3203125 C-21.86015625 -0.25009766 -21.86015625 -0.25009766 -20.9921875 -0.83203125 C-14.25442438 -4.27479179 -6.45119153 -3.67538003 0 0 Z " fill="#5A84FC" transform="translate(252.2109375,161.7421875)"/>
<path d="M0 0 C0.7482284 0.00042423 1.49645679 0.00084846 2.26735878 0.00128555 C21.53241823 0.01239328 40.79746001 0.0325393 60.0625 0.0625 C60.66186523 1.91015625 60.66186523 1.91015625 61.0625 4.0625 C57.02101897 10.25877559 51.33226731 16.023888 44.0625 18.0625 C38.7534633 18.83390982 33.58106391 19.20975521 28.21363831 19.20294189 C27.09197522 19.20739858 27.09197522 19.20739858 25.94765228 19.2119453 C23.46452021 19.22055454 20.98143678 19.22213386 18.49829102 19.22363281 C16.7087799 19.22826633 14.91926975 19.2332917 13.12976074 19.23867798 C8.28474373 19.25174843 3.43974055 19.25823587 -1.40529132 19.26268864 C-4.43532225 19.26562668 -7.46534945 19.26973274 -10.49537849 19.27419281 C-19.98501359 19.28785063 -29.47464012 19.29752694 -38.96428436 19.3013947 C-49.90241653 19.30587812 -60.84042391 19.32344643 -71.77851814 19.3523953 C-80.24669316 19.3740266 -88.71483309 19.38409968 -97.18303543 19.38543582 C-102.23527178 19.38648236 -107.28739054 19.39235862 -112.3395977 19.41025543 C-117.09126546 19.42676224 -121.84272751 19.42887895 -126.59441376 19.42011642 C-128.33382024 19.41934758 -130.07323791 19.42366857 -131.81261635 19.43357468 C-144.1867628 19.49989246 -154.42503562 18.9322303 -163.9375 10.0625 C-165.67964299 8.08105165 -166.71908349 6.4463584 -167.9375 4.0625 C-167.6075 3.0725 -167.2775 2.0825 -166.9375 1.0625 C-153.85435851 0.87978195 -140.7710225 0.71543318 -127.6875 0.5625 C-126.16448336 0.54468412 -126.16448336 0.54468412 -124.6106987 0.52650833 C-83.07342772 0.04658717 -41.53939601 -0.02424993 0 0 Z " fill="#5A83FB" transform="translate(294.9375,311.9375)"/>
<path d="M0 0 C1.34882893 0.00128403 1.34882893 0.00128403 2.72490692 0.00259399 C13.50412729 0.0136477 24.28331383 0.03317856 35.0625 0.0625 C35.0625 0.7225 35.0625 1.3825 35.0625 2.0625 C45.2925 2.3925 55.5225 2.7225 66.0625 3.0625 C66.0625 3.3925 66.0625 3.7225 66.0625 4.0625 C64.35932869 4.0779612 64.35932869 4.0779612 62.62174988 4.09373474 C51.84068894 4.19214452 41.05967713 4.29493221 30.27869701 4.40183926 C24.73814305 4.45664466 19.19758359 4.50998909 13.65698242 4.55981445 C8.29470779 4.60809293 2.93248605 4.66044431 -2.42972374 4.71544075 C-4.45987287 4.73558122 -6.49003633 4.75433479 -8.52021217 4.77157402 C-19.35856623 4.86456581 -30.15629642 5.05738952 -40.97209644 5.81080532 C-44.56385905 6.04148925 -47.47936102 5.95227121 -50.9375 5.0625 C-53.72910005 4.9728816 -56.49493598 4.93626842 -59.28613281 4.94897461 C-60.12552399 4.94882858 -60.96491516 4.94868256 -61.82974243 4.9485321 C-64.60006304 4.94922793 -67.37031615 4.95700493 -70.140625 4.96484375 C-72.06304894 4.9667091 -73.98547336 4.96813245 -75.90789795 4.96913147 C-80.96477575 4.97294743 -86.02162477 4.98276988 -91.07849121 4.99383545 C-96.23982351 5.00406935 -101.40116047 5.00863333 -106.5625 5.01367188 C-116.68751263 5.02439295 -126.81250392 5.04145835 -136.9375 5.0625 C-136.5765625 5.54460937 -136.215625 6.02671875 -135.84375 6.5234375 C-135.14765625 7.47089844 -135.14765625 7.47089844 -134.4375 8.4375 C-133.9734375 9.06398438 -133.509375 9.69046875 -133.03125 10.3359375 C-131.9375 12.0625 -131.9375 12.0625 -131.9375 14.0625 C-130.9475 13.7325 -129.9575 13.4025 -128.9375 13.0625 C-126.3125 13.375 -126.3125 13.375 -123.9375 14.0625 C-123.6075 14.7225 -123.2775 15.3825 -122.9375 16.0625 C-119.34833986 17.43371518 -115.62680701 17.17970377 -111.83299255 17.16929626 C-111.11706989 17.16873956 -110.40114722 17.16818285 -109.66352993 17.16760927 C-107.26450309 17.16457312 -104.86555945 17.15438977 -102.46655273 17.14428711 C-100.74671516 17.14073096 -99.02687656 17.13764498 -97.30703735 17.13499451 C-93.60367555 17.12844338 -89.90033786 17.11888396 -86.19698906 17.10709953 C-80.34438984 17.08882193 -74.4917965 17.07921213 -68.63917542 17.07118225 C-51.99681024 17.04701775 -35.35448084 17.01110032 -18.7121582 16.96655273 C-9.52072722 16.9420261 -0.3293102 16.9246517 8.8621487 16.91499335 C14.68361185 16.90843978 20.50496019 16.89285913 26.32638371 16.87067592 C29.94295872 16.85896998 33.55950554 16.85557994 37.17609787 16.85457802 C38.85674662 16.8524253 40.53739492 16.84681575 42.21801949 16.8375473 C44.50710425 16.82540885 46.79586917 16.82550517 49.0849762 16.82872009 C50.36752572 16.82557769 51.65007524 16.82243528 52.97148991 16.81919765 C56.0625 17.0625 56.0625 17.0625 59.0625 19.0625 C35.6184897 19.13262386 12.17449515 19.18550476 -11.26959896 19.21793652 C-22.15543565 19.23339631 -33.04120713 19.25446892 -43.92700195 19.28881836 C-53.41658131 19.31874782 -62.90611342 19.33808145 -72.39573866 19.34476548 C-77.41904109 19.34867172 -82.44220839 19.35783353 -87.46546745 19.37969017 C-92.19731831 19.40011131 -96.92897886 19.40632242 -101.6608696 19.40182304 C-103.39382398 19.40264573 -105.12678499 19.40857776 -106.85970116 19.42011642 C-119.22056761 19.49835742 -129.43557091 18.92240686 -138.9375 10.0625 C-140.67964299 8.08105165 -141.71908349 6.4463584 -142.9375 4.0625 C-142.6075 3.0725 -142.2775 2.0825 -141.9375 1.0625 C-127.81260107 0.88696004 -113.68760071 0.72097768 -99.5625 0.5625 C-98.50435467 0.55062275 -97.44620934 0.5387455 -96.35599899 0.52650833 C-64.23677694 0.1686375 -32.12124152 -0.03080436 0 0 Z " fill="#4D73EE" transform="translate(269.9375,311.9375)"/>
<path d="M0 0 C1.12031616 -0.00426498 2.24063232 -0.00852997 3.39489746 -0.01292419 C4.62461777 -0.01247101 5.85433807 -0.01201782 7.12132263 -0.0115509 C8.41577301 -0.01490952 9.71022339 -0.01826813 11.04389954 -0.02172852 C14.59540052 -0.03056674 18.14687742 -0.03290649 21.69838834 -0.0335443 C24.66086423 -0.03449335 27.62333449 -0.03817142 30.58580822 -0.0417164 C37.57177035 -0.04985949 44.55771958 -0.05230068 51.54368591 -0.05158997 C58.75838076 -0.05098849 65.97300101 -0.06155455 73.18767697 -0.07733363 C79.37710535 -0.09038971 85.56650929 -0.09577471 91.75595134 -0.09513456 C95.45488701 -0.09487909 99.15375631 -0.097757 102.8526783 -0.10831261 C106.97352876 -0.11975154 111.09421077 -0.1152587 115.21507263 -0.10920715 C117.06268944 -0.11763641 117.06268944 -0.11763641 118.94763184 -0.12623596 C120.62387634 -0.11994423 120.62387634 -0.11994423 122.33398438 -0.11352539 C123.30903207 -0.11407016 124.28407976 -0.11461493 125.28867435 -0.1151762 C127.60350037 0.13371277 127.60350037 0.13371277 129.60350037 2.13371277 C128.5618178 2.14640859 128.5618178 2.14640859 127.49909115 2.15936089 C110.58910501 2.36611291 93.67929042 2.58340877 76.76959133 2.81239128 C68.59213293 2.92287285 60.41465708 3.02980617 52.23704529 3.12834167 C45.10812561 3.2142501 37.97932966 3.30686167 30.85060173 3.40746987 C27.0771935 3.46049151 23.30380836 3.51019181 19.53025627 3.55186081 C15.97530632 3.59122196 12.42058989 3.6395746 8.86585045 3.69469452 C6.94570731 3.72216473 5.02543659 3.7402175 3.10517883 3.75794983 C-2.77030261 3.85763203 -7.85678145 4.12612008 -13.39649963 6.13371277 C-14.51411682 6.48562683 -14.51411682 6.48562683 -15.65431213 6.84465027 C-20.38997484 8.52888178 -25.02851462 10.39774274 -27.39649963 15.13371277 C-28.05649963 15.13371277 -28.71649963 15.13371277 -29.39649963 15.13371277 C-29.66462463 15.87621277 -29.93274963 16.61871277 -30.20899963 17.38371277 C-31.39649963 20.13371277 -31.39649963 20.13371277 -32.86665887 22.015082 C-37.39930245 28.29220466 -37.83568302 36.2739483 -37.75726318 43.76423645 C-37.75982646 44.67932932 -37.76238973 45.59442219 -37.76503068 46.53724515 C-37.76993449 49.57430585 -37.7535322 52.61085877 -37.73707581 55.64787292 C-37.7362288 57.83651213 -37.73670612 60.02515218 -37.73840332 62.21379089 C-37.73926181 68.1345728 -37.72165956 74.05517127 -37.70068145 79.97591066 C-37.68189037 86.17119185 -37.68016229 92.36647754 -37.67660522 98.56178284 C-37.66729192 110.28417541 -37.64268774 122.00648375 -37.61255676 133.72883928 C-37.57874859 147.0782619 -37.56252115 160.427685 -37.54747045 173.77714086 C-37.5161376 201.22937814 -37.46339094 228.68154073 -37.39649963 256.13371277 C-39.39649963 255.13371277 -39.39649963 255.13371277 -40.39649963 252.13371277 C-42.13993143 230.15479318 -41.52781408 207.94851225 -41.49789357 185.92022705 C-41.49156694 180.46306994 -41.49104897 175.00591205 -41.48986816 169.54875183 C-41.48678193 159.25412422 -41.47860572 148.95950745 -41.46851867 138.66488457 C-41.45727258 126.92815617 -41.45182585 115.19142721 -41.44682324 103.45469475 C-41.43642029 79.34769478 -41.41887428 55.24070439 -41.39649963 31.13371277 C-40.73649963 31.13371277 -40.07649963 31.13371277 -39.39649963 31.13371277 C-39.39649963 29.81371277 -39.39649963 28.49371277 -39.39649963 27.13371277 C-38.73649963 26.80371277 -38.07649963 26.47371277 -37.39649963 26.13371277 C-37.06649963 25.14371277 -36.73649963 24.15371277 -36.39649963 23.13371277 C-36.06649963 22.14371277 -35.73649963 21.15371277 -35.39649963 20.13371277 C-34.73649963 19.80371277 -34.07649963 19.47371277 -33.39649963 19.13371277 C-33.31399963 18.41183777 -33.23149963 17.68996277 -33.14649963 16.94621277 C-32.06880735 12.90486671 -29.70347343 10.61789882 -26.39649963 8.13371277 C-23.52149963 7.25871277 -23.52149963 7.25871277 -21.39649963 7.13371277 C-21.06649963 6.14371277 -20.73649963 5.15371277 -20.39649963 4.13371277 C-17.77931213 3.21965027 -17.77931213 3.21965027 -14.52149963 2.50871277 C-3.3524078 0.00575966 -3.3524078 0.00575966 0 0 Z " fill="#6383D7" transform="translate(121.39649963378906,81.86628723144531)"/>
<path d="M0 0 C0.66 0 1.32 0 2 0 C1.67 1.98 1.34 3.96 1 6 C0.34 6 -0.32 6 -1 6 C-1.061875 7.03125 -1.12375 8.0625 -1.1875 9.125 C-2.39047479 14.8622644 -5.08571305 17.7238087 -10 21 C-11.87942237 21.25480902 -11.87942237 21.25480902 -14.03922558 21.26171303 C-15.27608224 21.27291127 -15.27608224 21.27291127 -16.5379259 21.28433573 C-17.44356022 21.282401 -18.34919455 21.28046626 -19.28227234 21.2784729 C-20.72556946 21.2871615 -20.72556946 21.2871615 -22.19802409 21.29602563 C-25.43633018 21.31309031 -28.67449431 21.3159077 -31.9128418 21.31884766 C-34.22852938 21.32814137 -36.5442136 21.33830919 -38.8598938 21.34928894 C-45.15909488 21.3766658 -51.4582735 21.39176109 -57.75751853 21.40471697 C-64.33591533 21.42031395 -70.91426603 21.44711505 -77.49263 21.4727478 C-88.53812141 21.51459993 -99.5836189 21.54884594 -110.62915039 21.578125 C-122.00677295 21.60830332 -133.38437032 21.64265027 -144.76196289 21.68261719 C-145.46311868 21.68507874 -146.16427447 21.68754028 -146.88667741 21.69007643 C-150.40412249 21.70245089 -153.92156728 21.71490745 -157.43901193 21.72740483 C-186.62597167 21.83099905 -215.81296612 21.920046 -245 22 C-245 21.67 -245 21.34 -245 21 C-239.65704423 19.91987729 -234.43609812 19.78332958 -229.0078125 19.68359375 C-228.06187225 19.66281265 -227.11593201 19.64203156 -226.1413269 19.62062073 C-223.13595459 19.55552415 -220.13049899 19.49642664 -217.125 19.4375 C-215.08072074 19.3942768 -213.03644974 19.35066132 -210.9921875 19.30664062 C-205.99487584 19.1998839 -200.99748084 19.09850529 -196 19 C-195.67 18.34 -195.34 17.68 -195 17 C-194.04509296 17.00184359 -193.09018593 17.00368717 -192.10634232 17.00558662 C-168.88859853 17.04995403 -145.67086024 17.08283646 -122.45308304 17.10362434 C-111.22521713 17.11394399 -99.9973792 17.12801747 -88.76953125 17.15087891 C-78.98518186 17.17079171 -69.20085273 17.18371143 -59.41648364 17.18817699 C-54.23408422 17.19078794 -49.05174275 17.19693912 -43.86936188 17.21146011 C-38.99391934 17.2250107 -34.11855879 17.22922775 -29.24309921 17.22621536 C-27.45161112 17.22676666 -25.66012036 17.2307591 -23.86864853 17.23841095 C-21.42643003 17.24833272 -18.98452277 17.24597905 -16.54229736 17.24050903 C-15.47419984 17.24924756 -15.47419984 17.24924756 -14.38452458 17.25816262 C-10.75364958 17.23611805 -8.08867751 16.99021086 -5 15 C-5.04125 13.9275 -5.0825 12.855 -5.125 11.75 C-5.01142928 8.34287835 -4.89535315 6.73773233 -3 4 C-2.34 3.67 -1.68 3.34 -1 3 C-0.67 2.01 -0.34 1.02 0 0 Z " fill="#5B7CDF" transform="translate(369,277)"/>
<path d="M0 0 C7.92075538 13.57843779 5.16059625 34.29272392 5.19287109 49.48242188 C5.20079266 51.59672676 5.20906279 53.71103036 5.21765137 55.82533264 C5.24360814 62.70645909 5.25914042 69.58759088 5.2734375 76.46875 C5.2788058 78.85200503 5.28418331 81.23526003 5.28956985 83.61851501 C5.3111492 93.5339938 5.3298852 103.44947111 5.34119225 113.36496735 C5.35744051 127.51158812 5.39069698 141.65793487 5.44759309 155.80445242 C5.4863771 165.79135427 5.50583425 175.77818303 5.51111281 185.76515818 C5.51475112 191.71351358 5.52661303 197.6615749 5.55921555 203.60984802 C5.58945 209.20465315 5.59555335 214.79898839 5.58383179 220.39385796 C5.58361242 222.43511655 5.59180252 224.47639802 5.60948563 226.51758003 C5.75904365 244.78918659 3.03476428 262.03418113 -10 276 C-10.66 276 -11.32 276 -12 276 C-12.33 276.99 -12.66 277.98 -13 279 C-13.66 279 -14.32 279 -15 279 C-15 279.66 -15 280.32 -15 281 C-16.96937661 282.62356346 -18.93345148 284.13559566 -21 285.625 C-21.57234375 286.04523438 -22.1446875 286.46546875 -22.734375 286.8984375 C-24.15203933 287.93805801 -25.57549262 288.96977591 -27 290 C-27.33 289.34 -27.66 288.68 -28 288 C-25.32459253 284.43279004 -22.64340588 281.58873576 -19 279 C-18.34 279 -17.68 279 -17 279 C-16.67 278.01 -16.34 277.02 -16 276 C-15.030625 275.401875 -14.06125 274.80375 -13.0625 274.1875 C-9.54319836 271.67371312 -8.93924273 270.13266802 -8 266 C-7.01 266 -6.02 266 -5 266 C-5.33 265.01 -5.66 264.02 -6 263 C-5.34 262.01 -4.68 261.02 -4 260 C-3.84248923 258.04686646 -3.68664992 256.09165071 -3.63671875 254.1328125 C-3 252 -3 252 -0.49862576 249.92582989 C2.91698093 245.92623767 2.69475201 243.15126547 2.61473083 238.0539093 C2.62041409 237.15170519 2.62609735 236.24950107 2.63195282 235.31995744 C2.64487608 232.29527449 2.62204714 229.27192448 2.59936523 226.24731445 C2.6012291 224.07876301 2.60526533 221.91021251 2.61131287 219.7416687 C2.62130595 213.84613317 2.60007858 207.95107686 2.57283282 202.0556109 C2.54899949 195.87539614 2.55194763 189.69519088 2.55152893 183.51493835 C2.54689629 173.12177434 2.52323757 162.7287931 2.48706055 152.33569336 C2.44546706 140.35543183 2.42775408 128.37538092 2.4244408 116.39503509 C2.42082435 103.61162853 2.40191079 90.82828064 2.37732053 78.04489875 C2.37112135 74.37960075 2.36746626 70.71430725 2.36428642 67.04900551 C2.35833163 61.25661364 2.34187041 55.46433674 2.31768227 49.67199326 C2.31031589 47.55904596 2.30617517 45.44608425 2.30570221 43.33312416 C2.30071827 32.01545057 1.90116994 20.96262912 0.42672825 9.73471355 C0.05068991 6.44363664 -0.08104028 3.30714466 0 0 Z " fill="#6381C6" transform="translate(428,97)"/>
<path d="M0 0 C31.35 0 62.7 0 95 0 C92.40508975 2.59491025 90.63754653 2.23591161 87.10310364 2.24884033 C86.27807846 2.24164978 85.45305328 2.23445923 84.60302734 2.22705078 C83.30048759 2.22748886 83.30048759 2.22748886 81.97163391 2.22793579 C79.09296782 2.22653917 76.21455854 2.21096242 73.3359375 2.1953125 C71.3433954 2.19158355 69.35085147 2.18873602 67.35830688 2.18673706 C62.10737061 2.17909132 56.85654452 2.15943477 51.60565186 2.1373291 C46.25013724 2.11689091 40.89460486 2.10773969 35.5390625 2.09765625 C25.02599319 2.07618975 14.51300575 2.04204249 4 2 C4.33 2.99 4.66 3.98 5 5 C5.66 5.33 6.32 5.66 7 6 C10 10.5 10 10.5 10 13 C10.99 12.67 11.98 12.34 13 12 C15.625 12.3125 15.625 12.3125 18 13 C18.33 13.66 18.66 14.32 19 15 C22.58916014 16.37121518 26.31069299 16.11720377 30.10450745 16.10679626 C30.82043011 16.10623956 31.53635278 16.10568285 32.27397007 16.10510927 C34.67299691 16.10207312 37.07194055 16.09188977 39.47094727 16.08178711 C41.19078484 16.07823096 42.91062344 16.07514498 44.63046265 16.07249451 C48.33382445 16.06594338 52.03716214 16.05638396 55.74051094 16.04459953 C61.59311016 16.02632193 67.4457035 16.01671213 73.29832458 16.00868225 C89.94068976 15.98451775 106.58301916 15.94860032 123.2253418 15.90405273 C132.41677278 15.8795261 141.6081898 15.8621517 150.7996487 15.85249335 C156.62111185 15.84593978 162.44246019 15.83035913 168.26388371 15.80817592 C171.88045872 15.79646998 175.49700554 15.79307994 179.11359787 15.79207802 C180.79424662 15.7899253 182.47489492 15.78431575 184.15551949 15.7750473 C186.44460425 15.76290885 188.73336917 15.76300517 191.0224762 15.76622009 C192.30502572 15.76307769 193.58757524 15.75993528 194.90898991 15.75669765 C198 16 198 16 201 18 C177.5559897 18.07012386 154.11199515 18.12300476 130.66790104 18.15543652 C119.78206435 18.17089631 108.89629287 18.19196892 98.01049805 18.22631836 C88.52091869 18.25624782 79.03138658 18.27558145 69.54176134 18.28226548 C64.51845891 18.28617172 59.49529161 18.29533353 54.47203255 18.31719017 C49.74018169 18.33761131 45.00852114 18.34382242 40.2766304 18.33932304 C38.54367602 18.34014573 36.81071501 18.34607776 35.07779884 18.35761642 C22.71693239 18.43585742 12.50192909 17.85990686 3 9 C1.25785701 7.01855165 0.21841651 5.3838584 -1 3 C-0.67 2.01 -0.34 1.02 0 0 Z " fill="#617AC9" transform="translate(128,313)"/>
<path d="M0 0 C0.33 0 0.66 0 1 0 C0.99922266 1.04536234 0.99844532 2.09072468 0.99764442 3.16776466 C0.97246284 40.66231586 1.10620784 78.1554642 1.28752708 115.6495266 C1.34318164 127.19186434 1.39218593 138.73419316 1.43314302 150.27659261 C1.46283668 158.48638852 1.5000252 166.69613007 1.54279006 174.90586817 C1.56795879 179.77909433 1.58977579 184.65228123 1.60334396 189.52555466 C1.6161291 194.07165253 1.63814396 198.61761051 1.66738319 203.16363144 C1.6764654 204.82935582 1.6821507 206.49510266 1.68421364 208.16085052 C1.68752925 210.43009626 1.70298381 212.69894422 1.7215271 214.96810913 C1.72705786 216.23725348 1.73258862 217.50639782 1.73828697 218.81400108 C1.9886417 221.86172819 2.51190275 223.40419597 4 226 C4.1953125 228.796875 4.1953125 228.796875 4.125 231.75 C4.10695313 232.73484375 4.08890625 233.7196875 4.0703125 234.734375 C4.04710937 235.48203125 4.02390625 236.2296875 4 237 C3.34 237.33 2.68 237.66 2 238 C-0.70392774 224.66518105 -1.42298165 211.88174389 -1.35644531 198.29956055 C-1.35723826 196.18681758 -1.35934184 194.07407477 -1.36264038 191.96133423 C-1.36772534 186.28242212 -1.35434236 180.60369465 -1.33711338 174.92481208 C-1.32196714 168.96280382 -1.32324898 163.00079686 -1.32244873 157.03877258 C-1.31877071 147.04542934 -1.30387009 137.05215539 -1.28125 127.05883789 C-1.25227324 114.23108149 -1.24201453 101.40338047 -1.2375679 88.5755949 C-1.23359085 77.52792123 -1.22109808 66.48025958 -1.20722103 55.43259454 C-1.20312524 51.88692963 -1.20019826 48.34126515 -1.19742584 44.79559898 C-1.19253422 39.23457189 -1.18233315 33.67357839 -1.16798782 28.1125679 C-1.16346615 26.07154582 -1.16062647 24.03051923 -1.15958023 21.98949242 C-1.15783372 19.20708781 -1.14994905 16.42476712 -1.14044189 13.64237976 C-1.14130838 12.83266824 -1.14217486 12.02295672 -1.1430676 11.18870848 C-1.12327927 7.33636457 -0.93859236 3.74474271 0 0 Z " fill="#5D79C5" transform="translate(50,110)"/>
<path d="M0 0 C17.63696949 -0.14161866 35.26219633 0.03476712 52.89602661 0.37332153 C55.13547794 0.41617356 57.3749608 0.45740801 59.61447144 0.49703979 C62.78998109 0.55410104 65.96528589 0.61778988 69.140625 0.68359375 C70.10704422 0.70031128 71.07346344 0.71702881 72.06916809 0.73425293 C73.39666328 0.76416321 73.39666328 0.76416321 74.75097656 0.79467773 C75.91430511 0.81799416 75.91430511 0.81799416 77.10113525 0.84178162 C79 1 79 1 81 2 C83.92841546 2.12286155 86.83456398 2.18577144 89.76416016 2.20532227 C91.12522133 2.22017166 91.12522133 2.22017166 92.51377869 2.23532104 C95.5221798 2.26698609 98.53059673 2.29171324 101.5390625 2.31640625 C103.62129128 2.33697146 105.70351584 2.35796781 107.78573608 2.37937927 C113.27332145 2.4346447 118.76094476 2.48403424 124.24859619 2.53222656 C129.84545276 2.58240897 135.44225404 2.63811203 141.0390625 2.69335938 C152.02599446 2.80099562 163.01297437 2.90242843 174 3 C174.99 4.98 174.99 4.98 176 7 C175.30447494 6.67468292 174.60894987 6.34936584 173.89234829 6.01419067 C170.64172954 4.87437386 168.16244186 4.75903631 164.72242737 4.77294922 C163.45683487 4.77309021 162.19124237 4.7732312 160.88729858 4.77337646 C159.49200314 4.78364389 158.09670897 4.79408679 156.70141602 4.8046875 C155.2258779 4.80852785 153.75033717 4.81145451 152.27479553 4.8135376 C149.09964218 4.8198546 145.9245955 4.83238523 142.74948311 4.84967041 C137.71710647 4.87677695 132.68476502 4.88851827 127.65232849 4.89794922 C116.0496235 4.92202532 104.44700984 4.96598524 92.84436798 5.01040649 C82.2318871 5.05087376 71.61943859 5.08701464 61.00689644 5.10683632 C56.01722777 5.11673288 51.02772542 5.13635184 46.03812325 5.16369629 C42.91377207 5.178759 39.78944273 5.18527548 36.66506004 5.1896286 C35.23090896 5.19333062 33.79676132 5.20044618 32.36264801 5.21149445 C9.89890936 5.37889552 9.89890936 5.37889552 0 1 C0 0.67 0 0.34 0 0 Z " fill="#6282EA" transform="translate(95,396)"/>
<path d="M0 0 C2.13770672 2.13770672 2.93517623 3.83132291 4.1875 6.5625 C8.69553926 15.65743636 13.59483526 21.86239219 23 26 C23.68843994 26.34224609 24.37687988 26.68449219 25.08618164 27.03710938 C29.03514351 28.34207004 32.6976331 28.3364972 36.83203125 28.37890625 C37.69347244 28.3955835 38.55491364 28.41226074 39.44245911 28.42944336 C42.23239359 28.4820662 45.02236383 28.5221442 47.8125 28.5625 C51.61856952 28.63137839 55.42450818 28.70662533 59.23046875 28.78125 C60.16370972 28.7986171 61.09695068 28.81598419 62.05847168 28.83387756 C69.58591493 28.97782075 77.1034739 29.2253261 84.625 29.5625 C85.60573486 29.60640869 86.58646973 29.65031738 87.59692383 29.69555664 C89.73144084 29.79365207 91.86575474 29.89615991 94 30 C90.72372783 32.95613068 88.58942513 33.36906147 84.22167969 33.34057617 C83.0607782 33.34034958 81.89987671 33.34012299 80.70379639 33.33988953 C79.45576233 33.32440567 78.20772827 33.30892181 76.921875 33.29296875 C75.64016418 33.28872391 74.35845337 33.28447906 73.03790283 33.28010559 C69.63800365 33.26867648 66.23849177 33.23922666 62.83874512 33.20599365 C59.36650837 33.17525063 55.89420876 33.16159126 52.421875 33.14648438 C45.6144247 33.11435458 38.80723097 33.06318203 32 33 C32 32.67 32 32.34 32 32 C29.69 31.67 27.38 31.34 25 31 C25 30.34 25 29.68 25 29 C24.38125 28.855625 23.7625 28.71125 23.125 28.5625 C21 28 21 28 19 27 C18.67 27.66 18.34 28.32 18 29 C17.01 28.67 16.02 28.34 15 28 C15 27.34 15 26.68 15 26 C14.401875 25.773125 13.80375 25.54625 13.1875 25.3125 C9.77889932 23.26733959 8.42627624 20.43383827 7.3125 16.6875 C7.1578125 15.8521875 7.1578125 15.8521875 7 15 C5.68 15.33 4.36 15.66 3 16 C2.566875 14.2984375 2.566875 14.2984375 2.125 12.5625 C1.75375 11.386875 1.3825 10.21125 1 9 C0.34 8.67 -0.32 8.34 -1 8 C-0.67 5.36 -0.34 2.72 0 0 Z " fill="#5D82D7" transform="translate(84,338)"/>
<path d="M0 0 C45.21 0 90.42 0 137 0 C137 0.99 137 1.98 137 3 C125.56077057 3.02313425 114.12154668 3.04092063 102.68229866 3.05181217 C97.37103578 3.05703862 92.05978885 3.06413198 86.74853516 3.07543945 C81.62627886 3.08627675 76.50403796 3.09227864 71.38177109 3.09487724 C69.4240787 3.09672996 67.46638719 3.10034767 65.50870132 3.10573006 C62.77417405 3.11295164 60.039711 3.11399046 57.30517578 3.11352539 C56.48950134 3.11712067 55.6738269 3.12071594 54.83343506 3.12442017 C49.22810432 3.11405216 49.22810432 3.11405216 47 2 C45.4892243 1.88194823 43.97361169 1.82303551 42.45849609 1.79467773 C41.51767181 1.77473251 40.57684753 1.75478729 39.60751343 1.73423767 C38.58976837 1.71752518 37.57202332 1.70081268 36.5234375 1.68359375 C35.48305328 1.66281265 34.44266907 1.64203156 33.37075806 1.62062073 C30.03890751 1.55510128 26.7069765 1.49622908 23.375 1.4375 C21.11978326 1.39431706 18.86457473 1.35070285 16.609375 1.30664062 C11.07300236 1.19941748 5.53654922 1.09765554 0 1 C0 0.67 0 0.34 0 0 Z " fill="#5B7EEE" transform="translate(127,396)"/>
<path d="M0 0 C2.09350689 3.4019487 2.17942163 6.05272412 2 10 C2.66 10 3.32 10 4 10 C4.04634281 21.12663602 4.08187915 32.25324908 4.10362434 43.37996197 C4.11406099 48.54655555 4.12821813 53.71308309 4.15087891 58.87963867 C4.17261137 63.86575278 4.18456952 68.85180338 4.18975449 73.8379612 C4.1934495 75.74015109 4.20066491 77.64233751 4.21146011 79.54450035 C4.22598032 82.2090239 4.22797771 84.87328504 4.22705078 87.5378418 C4.23424133 88.32402893 4.24143188 89.11021606 4.24884033 89.92022705 C4.23326861 94.057599 3.86079607 97.27935833 2 101 C1.67 101 1.34 101 1 101 C0.98969254 99.82093582 0.97938507 98.64187164 0.96876526 97.42707825 C0.87102761 86.31789479 0.7682931 75.2087673 0.66066074 64.09967518 C0.60548613 58.3883283 0.55207482 52.67697625 0.50268555 46.96557617 C0.4549615 41.45423136 0.40261573 35.94294809 0.34705925 30.43167686 C0.32667214 28.32855447 0.30795309 26.22541523 0.29092598 24.12226295 C0.26680132 21.17755671 0.23675773 18.23296609 0.20532227 15.28833008 C0.1995668 14.4179863 0.19381134 13.54764252 0.18788147 12.65092468 C0.13885342 8.6129198 -0.15102597 4.96227538 -1 1 C-0.67 0.67 -0.34 0.34 0 0 Z " fill="#6A8EDF" transform="translate(398,107)"/>
<path d="M0 0 C0.33 0 0.66 0 1 0 C2.20872164 13.23486277 2.25363075 26.48939576 2.29516602 39.77050781 C2.30673836 42.3438057 2.32727174 44.91707862 2.35668945 47.49023438 C2.39957701 51.25667209 2.41555574 55.02241034 2.42578125 58.7890625 C2.44328934 59.92171539 2.46079742 61.05436829 2.47883606 62.22134399 C2.44113666 76.29029143 -2.30272753 89.61006521 -12 100 C-12.66 100 -13.32 100 -14 100 C-14.33 100.99 -14.66 101.98 -15 103 C-15.66 103 -16.32 103 -17 103 C-17 103.66 -17 104.32 -17 105 C-18.96937661 106.62356346 -20.93345148 108.13559566 -23 109.625 C-23.57234375 110.04523438 -24.1446875 110.46546875 -24.734375 110.8984375 C-26.15203933 111.93805801 -27.57549262 112.96977591 -29 114 C-29.33 113.34 -29.66 112.68 -30 112 C-27.32459253 108.43279004 -24.64340588 105.58873576 -21 103 C-20.34 103 -19.68 103 -19 103 C-18.67 102.01 -18.34 101.02 -18 100 C-17.030625 99.401875 -16.06125 98.80375 -15.0625 98.1875 C-11.54319836 95.67371312 -10.93924273 94.13266802 -10 90 C-9.01 90 -8.02 90 -7 90 C-7.33 89.01 -7.66 88.02 -8 87 C-7.34 86.01 -6.68 85.02 -6 84 C-5.84248923 82.04686646 -5.68664992 80.09165071 -5.63671875 78.1328125 C-5 76 -5 76 -2.49568176 73.80952454 C0.65125069 70.26685172 0.60918543 68.59427892 0.56762695 63.91479492 C0.56835709 63.22156128 0.56908722 62.52832764 0.56983948 61.81408691 C0.56637138 59.53540258 0.52755321 57.25879338 0.48828125 54.98046875 C0.47895021 53.39578874 0.47183547 51.81109427 0.46684265 50.22639465 C0.44779537 46.06511274 0.3987154 41.90471007 0.34332275 37.74377441 C0.29208052 33.49401747 0.26931807 29.24411778 0.24414062 24.99414062 C0.19059333 16.66235792 0.10530942 8.33128848 0 0 Z " fill="#597AE1" transform="translate(430,273)"/>
<path d="M0 0 C-3.3 0.99 -6.6 1.98 -10 3 C-10.01458252 4.38711182 -10.02916504 5.77422363 -10.04418945 7.20336914 C-10.10232298 12.36785178 -10.17955543 17.53190529 -10.26245117 22.69604492 C-10.29562968 24.92774471 -10.32368348 27.15952698 -10.34643555 29.39135742 C-10.38011126 32.60631334 -10.43243485 35.8205182 -10.48828125 39.03515625 C-10.49786613 40.52306419 -10.49786613 40.52306419 -10.50764465 42.04103088 C-10.6363525 48.15611062 -10.97236689 54.00983759 -15.578125 58.55859375 C-19.88707 60.82381016 -23.04166392 61.75635635 -28 61 C-35.03382088 58.3408726 -47.58841322 52.82317356 -51 46 C-47.5625 46.8125 -47.5625 46.8125 -44 48 C-43.67 48.99 -43.34 49.98 -43 51 C-41.15274948 51.69159401 -41.15274948 51.69159401 -39 52 C-38.360625 52.20625 -37.72125 52.4125 -37.0625 52.625 C-34.48800126 53.09309068 -32.51818343 52.62954586 -30 52 C-30.66 53.98 -31.32 55.96 -32 58 C-30.68 58 -29.36 58 -28 58 C-27.67 57.01 -27.34 56.02 -27 55 C-26.34 55.33 -25.68 55.66 -25 56 C-25 55.34 -25 54.68 -25 54 C-17.25 53.875 -17.25 53.875 -15 55 C-14.12449979 51.96197833 -13.8516368 49.2050114 -13.79467773 46.04785156 C-13.77473251 45.06713684 -13.75478729 44.08642212 -13.73423767 43.07598877 C-13.70916893 41.4992337 -13.70916893 41.4992337 -13.68359375 39.890625 C-13.66281265 38.80867859 -13.64203156 37.72673218 -13.62062073 36.61199951 C-13.55527069 33.15806387 -13.49630771 29.70405263 -13.4375 26.25 C-13.39430096 23.90754429 -13.35068622 21.5650962 -13.30664062 19.22265625 C-13.19960417 13.4818506 -13.09781074 7.74096985 -13 2 C-11.5882217 1.46605821 -10.17029756 0.94834896 -8.75 0.4375 C-7.96109375 0.14746094 -7.1721875 -0.14257812 -6.359375 -0.44140625 C-4 -1 -4 -1 0 0 Z " fill="#5E83F6" transform="translate(384,396)"/>
<path d="M0 0 C0.33 0 0.66 0 1 0 C1.33 15.18 1.66 30.36 2 46 C2.99 46.33 3.98 46.66 5 47 C4.34 47.66 3.68 48.32 3 49 C2.34 48.67 1.68 48.34 1 48 C1.07193542 48.68004719 1.14387083 49.36009438 1.21798611 50.06074905 C2.04716838 58.73540742 2.09985066 67.34715066 2.02172852 76.04980469 C2.01156147 77.62790643 2.00187052 79.2060113 1.99261475 80.78411865 C1.96637625 85.03125014 1.93354999 89.27830725 1.89946485 93.52538204 C1.86487887 97.97760904 1.83645702 102.42987548 1.80735779 106.88214111 C1.7514377 115.29660958 1.69004148 123.71102866 1.62663645 132.1254437 C1.55466897 141.71196783 1.48886926 151.29853127 1.42356598 160.88510275 C1.28919928 180.59011957 1.14715738 200.29507481 1 220 C0.67 220 0.34 220 0 220 C-0.15495591 196.04054926 -0.30294534 172.08106388 -0.4429636 148.121521 C-0.5081545 136.99310083 -0.575503 125.86470204 -0.64819336 114.73632812 C-0.71165068 105.02058509 -0.77079254 95.30482628 -0.82505554 85.5890274 C-0.85384738 80.45939151 -0.88459334 75.32978651 -0.92053413 70.20019531 C-1.08318719 46.77360761 -0.98148166 23.40942276 0 0 Z " fill="#638BF8" transform="translate(51,115)"/>
<path d="M0 0 C3.73091797 0.27636429 5.44114744 2.23160842 7.8515625 4.94140625 C10.97961618 10.54849567 11.29068092 16.8777493 11.22705078 23.16015625 C11.22734283 23.93185654 11.22763489 24.70355682 11.22793579 25.49864197 C11.22655531 28.02004703 11.21105533 30.5411473 11.1953125 33.0625 C11.1915778 34.82226398 11.18873299 36.58203006 11.18673706 38.34179688 C11.17913658 42.95149576 11.15951923 47.56106667 11.1373291 52.17071533 C11.11679309 56.88332387 11.10771882 61.59595327 11.09765625 66.30859375 C11.07626966 75.53911843 11.04217744 84.76954853 11 94 C10.34 94 9.68 94 9 94 C8.67 80.8 8.34 67.6 8 54 C7.67 54 7.34 54 7 54 C7.00444122 53.44511902 7.00888245 52.89023804 7.01345825 52.31854248 C7.05770357 46.54360529 7.08787142 40.76871627 7.10986328 34.99365234 C7.1199211 32.83835901 7.13356899 30.68307932 7.15087891 28.52783203 C7.17513662 25.42997876 7.18648532 22.33230591 7.1953125 19.234375 C7.20563507 18.27070007 7.21595764 17.30702515 7.22659302 16.31414795 C7.22681961 14.96320038 7.22681961 14.96320038 7.22705078 13.58496094 C7.231492 12.79442322 7.23593323 12.0038855 7.24050903 11.18939209 C6.96436591 8.67561722 6.3583163 7.12832446 5 5 C4.01 4.34 3.02 3.68 2 3 C2 2.34 2 1.68 2 1 C1.34 0.67 0.68 0.34 0 0 Z " fill="#627AC6" transform="translate(250,162)"/>
<path d="M0 0 C1.74216797 0.04060547 1.74216797 0.04060547 3.51953125 0.08203125 C4.39996094 0.11683594 5.28039062 0.15164062 6.1875 0.1875 C3.78186247 2.59313753 2.51740189 2.79108311 -0.8125 3.1875 C-3 2.75 -3 2.75 -4.8125 2.1875 C-5.4725 2.1875 -6.1325 2.1875 -6.8125 2.1875 C-6.93625 3.156875 -7.06 4.12625 -7.1875 5.125 C-7.39375 6.135625 -7.6 7.14625 -7.8125 8.1875 C-10.30342811 9.43296405 -11.22330733 8.9642578 -13.8125 8.1875 C-13.80089844 9.10273438 -13.78929687 10.01796875 -13.77734375 10.9609375 C-13.76832031 12.14945313 -13.75929688 13.33796875 -13.75 14.5625 C-13.73839844 15.74585938 -13.72679687 16.92921875 -13.71484375 18.1484375 C-13.8125 21.1875 -13.8125 21.1875 -14.8125 23.1875 C-14.48543026 24.52238362 -14.15069825 25.85539234 -13.8125 27.1875 C-13.72034901 29.17674429 -13.68182827 31.16877982 -13.6796875 33.16015625 C-13.67775391 34.88008789 -13.67775391 34.88008789 -13.67578125 36.63476562 C-13.67964844 37.82779297 -13.68351562 39.02082031 -13.6875 40.25 C-13.68363281 41.44689453 -13.67976563 42.64378906 -13.67578125 43.87695312 C-13.67707031 45.02228516 -13.67835938 46.16761719 -13.6796875 47.34765625 C-13.68081543 48.39574463 -13.68194336 49.44383301 -13.68310547 50.52368164 C-13.8125 53.1875 -13.8125 53.1875 -14.8125 56.1875 C-14.6475 56.950625 -14.4825 57.71375 -14.3125 58.5 C-13.72647109 61.64990537 -14.16056642 64.07270622 -14.8125 67.1875 C-15.8025 66.8575 -16.7925 66.5275 -17.8125 66.1875 C-18.0583186 59.25058227 -18.27027928 52.31320282 -18.45947266 45.37451172 C-18.52764649 43.01750647 -18.60337785 40.66070655 -18.68701172 38.30419922 C-18.80635663 34.90358822 -18.89789319 31.50314926 -18.984375 28.1015625 C-19.02689392 27.05948639 -19.06941284 26.01741028 -19.11322021 24.9437561 C-19.25114681 18.1550745 -18.47237008 12.06603534 -14.8125 6.1875 C-13.8225 5.8575 -12.8325 5.5275 -11.8125 5.1875 C-11.8125 4.5275 -11.8125 3.8675 -11.8125 3.1875 C-7.87993146 0.12883558 -4.89581268 -0.14835796 0 0 Z " fill="#5E76D5" transform="translate(330.8125,188.8125)"/>
<path d="M0 0 C11.69998437 -0.04626739 23.3999471 -0.08184065 35.1000042 -0.10362434 C40.5323598 -0.11407752 45.96465298 -0.12826461 51.39697266 -0.15087891 C56.63594301 -0.1725527 61.87485319 -0.18455706 67.1138649 -0.18975449 C69.11622185 -0.19346009 71.11857538 -0.20069583 73.12090683 -0.21146011 C75.91775473 -0.22590247 78.7143515 -0.227981 81.51123047 -0.22705078 C82.34560638 -0.23424133 83.1799823 -0.24143188 84.03964233 -0.24884033 C89.77189568 -0.22810432 89.77189568 -0.22810432 92 2 C80.35426921 2.17408527 68.70843674 2.34029066 57.0625 2.5 C56.19674473 2.51187725 55.33098946 2.5237545 54.43899918 2.53599167 C22.29028665 2.97427629 -9.84820151 3.13145814 -42 3 C-42 2.67 -42 2.34 -42 2 C-28.14 1.67 -14.28 1.34 0 1 C0 0.67 0 0.34 0 0 Z " fill="#6A89DE" transform="translate(159,82)"/>
<path d="M0 0 C0.90070724 0.02009628 1.80141449 0.04019257 2.72941589 0.06089783 C3.69825211 0.08793289 4.66708832 0.11496796 5.6652832 0.14282227 C7.15714897 0.17823875 7.15714897 0.17823875 8.67915344 0.21437073 C11.85826951 0.29099229 15.03714108 0.37502339 18.21606445 0.45922852 C20.37034933 0.51245069 22.52464617 0.56519108 24.67895508 0.61743164 C29.96230975 0.7466054 35.24548256 0.88186439 40.52856445 1.02172852 C40.52856445 1.35172852 40.52856445 1.68172852 40.52856445 2.02172852 C38.63134644 2.03574707 38.63134644 2.03574707 36.69580078 2.05004883 C31.94480839 2.09031268 27.19443909 2.15616782 22.44384766 2.22924805 C20.39868249 2.25724858 18.3534133 2.27856567 16.30810547 2.29272461 C1.08415884 2.4043644 -13.23974187 2.63072661 -25.47143555 13.02172852 C-25.80143555 13.68172852 -26.13143555 14.34172852 -26.47143555 15.02172852 C-27.13143555 15.02172852 -27.79143555 15.02172852 -28.47143555 15.02172852 C-28.73956055 15.76422852 -29.00768555 16.50672852 -29.28393555 17.27172852 C-30.42441204 19.91283197 -31.75820626 21.73742281 -33.47143555 24.02172852 C-34.14584686 25.68527641 -34.81146764 27.35239793 -35.47143555 29.02172852 C-36.74975129 31.39080789 -38.10612665 33.7007034 -39.47143555 36.02172852 C-39.80143555 36.02172852 -40.13143555 36.02172852 -40.47143555 36.02172852 C-40.47143555 34.37172852 -40.47143555 32.72172852 -40.47143555 31.02172852 C-39.81143555 31.02172852 -39.15143555 31.02172852 -38.47143555 31.02172852 C-38.47143555 29.70172852 -38.47143555 28.38172852 -38.47143555 27.02172852 C-37.81143555 26.69172852 -37.15143555 26.36172852 -36.47143555 26.02172852 C-36.14143555 25.03172852 -35.81143555 24.04172852 -35.47143555 23.02172852 C-35.14143555 22.03172852 -34.81143555 21.04172852 -34.47143555 20.02172852 C-33.81143555 19.69172852 -33.15143555 19.36172852 -32.47143555 19.02172852 C-32.38893555 18.29985352 -32.30643555 17.57797852 -32.22143555 16.83422852 C-31.14374327 12.79288246 -28.77840934 10.50591457 -25.47143555 8.02172852 C-22.59643555 7.14672852 -22.59643555 7.14672852 -20.47143555 7.02172852 C-20.14143555 6.03172852 -19.81143555 5.04172852 -19.47143555 4.02172852 C-16.85424805 3.10766602 -16.85424805 3.10766602 -13.59643555 2.39672852 C-2.60796901 -0.06574712 -2.60796901 -0.06574712 0 0 Z " fill="#5E79DA" transform="translate(120.471435546875,81.978271484375)"/>
<path d="M0 0 C0.33 0 0.66 0 1 0 C1.00808685 0.83049866 1.01617371 1.66099731 1.02450562 2.5166626 C1.10245651 10.34453854 1.18974872 18.17224262 1.28752708 25.999897 C1.33746627 30.02414759 1.38379645 34.04837223 1.421875 38.07275391 C1.45875796 41.9567365 1.50512595 45.84050077 1.55806351 49.72429657 C1.57659149 51.20580972 1.59170537 52.68736965 1.60334396 54.16895294 C1.62023402 56.2446985 1.6492747 58.3199458 1.68115234 60.39550781 C1.69447601 61.57687317 1.70779968 62.75823853 1.7215271 63.97540283 C1.99227003 66.91604193 2.57772409 68.47441591 4 71 C4.1953125 73.796875 4.1953125 73.796875 4.125 76.75 C4.10695313 77.73484375 4.08890625 78.7196875 4.0703125 79.734375 C4.04710937 80.48203125 4.02390625 81.2296875 4 82 C3.01 82.495 3.01 82.495 2 83 C-1.63819049 67.18374879 -1.39337049 51.32341157 -1.26428223 35.19805908 C-1.24503714 32.32042485 -1.24111765 29.44285365 -1.2375679 26.56516361 C-1.23242736 23.117632 -1.21792065 19.67015739 -1.203125 16.22265625 C-1.19887512 14.93843277 -1.19462524 13.65420929 -1.19024658 12.33106995 C-1.18063904 11.14810837 -1.17103149 9.96514679 -1.16113281 8.74633789 C-1.15430481 7.70586807 -1.14747681 6.66539825 -1.14044189 5.59339905 C-1 3 -1 3 0 0 Z " fill="#627DCD" transform="translate(50,265)"/>
<path d="M0 0 C0 17.16 0 34.32 0 52 C0.99 52.33 1.98 52.66 3 53 C1.02 53 -0.96 53 -3 53 C-3 35.84 -3 18.68 -3 1 C-1 0 -1 0 0 0 Z " fill="#5575E1" transform="translate(170,204)"/>
<path d="M0 0 C18.15 0 36.3 0 55 0 C55 0.33 55 0.66 55 1 C54.04287109 1.09087891 54.04287109 1.09087891 53.06640625 1.18359375 C52.24011719 1.26738281 51.41382813 1.35117187 50.5625 1.4375 C49.32693359 1.55931641 49.32693359 1.55931641 48.06640625 1.68359375 C46.01337975 1.78930815 46.01337975 1.78930815 45 3 C43.61839885 3.0927833 42.23211962 3.11747043 40.84741211 3.11352539 C39.96657455 3.11344986 39.085737 3.11337433 38.1782074 3.11329651 C37.22092239 3.10813522 36.26363739 3.10297394 35.27734375 3.09765625 C34.30213272 3.0962413 33.32692169 3.09482635 32.32215881 3.09336853 C29.19390857 3.08775133 26.06572877 3.07519593 22.9375 3.0625 C20.82226666 3.05748722 18.70703219 3.05292393 16.59179688 3.04882812 C11.39450704 3.03777631 6.19725855 3.02102146 1 3 C0.67 2.01 0.34 1.02 0 0 Z " fill="#658AE9" transform="translate(259,256)"/>
<path d="M0 0 C43.56 0 87.12 0 132 0 C132.99 1.98 132.99 1.98 134 4 C133.28840886 3.6757435 132.57681772 3.35148701 131.84366322 3.01740456 C128.85443614 1.94792023 126.66301242 1.73999813 123.50138855 1.7215271 C122.40908936 1.71036362 121.31679016 1.69920013 120.19139099 1.68769836 C119.0031221 1.68553818 117.81485321 1.68337799 116.59057617 1.68115234 C115.33163544 1.67110672 114.0726947 1.6610611 112.77560425 1.65071106 C109.33180816 1.62345315 105.88805288 1.60827422 102.44417739 1.59528303 C98.84199461 1.57963401 95.23989495 1.55284945 91.63777161 1.5272522 C84.82039572 1.48049572 78.00300415 1.4437365 71.18555003 1.41057932 C63.42253161 1.37233578 55.65959673 1.32293148 47.89664876 1.27259517 C31.93115959 1.16932191 15.96562354 1.08004658 0 1 C0 0.67 0 0.34 0 0 Z " fill="#657FCC" transform="translate(137,399)"/>
<path d="M0 0 C8.25 0.33 16.5 0.66 25 1 C20.78866639 4.15850021 20.14115933 4.37265973 15.22167969 4.34057617 C14.0607782 4.34034958 12.89987671 4.34012299 11.70379639 4.33988953 C10.45576233 4.32440567 9.20772827 4.30892181 7.921875 4.29296875 C6.64016418 4.28872391 5.35845337 4.28447906 4.03790283 4.28010559 C0.63800365 4.26867648 -2.76150823 4.23922666 -6.16125488 4.20599365 C-9.63349163 4.17525063 -13.10579124 4.16159126 -16.578125 4.14648438 C-23.3855753 4.11435458 -30.19276903 4.06318203 -37 4 C-37 3.67 -37 3.34 -37 3 C-29.12652596 1.91193558 -21.37720997 1.88470397 -13.4375 1.9375 C-11.49520508 1.94426758 -11.49520508 1.94426758 -9.51367188 1.95117188 C-6.342399 1.96287399 -3.17122454 1.97926887 0 2 C0 1.34 0 0.68 0 0 Z " fill="#5780EB" transform="translate(153,367)"/>
<path d="M0 0 C-4.95 1.485 -4.95 1.485 -10 3 C-10.01458252 4.38711182 -10.02916504 5.77422363 -10.04418945 7.20336914 C-10.10232298 12.36785178 -10.17955543 17.53190529 -10.26245117 22.69604492 C-10.29562968 24.92774471 -10.32368348 27.15952698 -10.34643555 29.39135742 C-10.38011126 32.60631334 -10.43243485 35.8205182 -10.48828125 39.03515625 C-10.49467117 40.02709488 -10.5010611 41.01903351 -10.50764465 42.04103088 C-10.62844404 47.78036904 -11.33661222 51.89336476 -14 57 C-14.33 57 -14.66 57 -15 57 C-15.042721 55.33388095 -15.04063832 53.66617115 -15 52 C-14.505 51.505 -14.505 51.505 -14 51 C-13.8774645 49.46617321 -13.82222062 47.92689481 -13.79467773 46.38842773 C-13.77473251 45.40748642 -13.75478729 44.4265451 -13.73423767 43.4158783 C-13.71752518 42.3492244 -13.70081268 41.2825705 -13.68359375 40.18359375 C-13.66281265 39.0974025 -13.64203156 38.01121124 -13.62062073 36.8921051 C-13.55500558 33.40730373 -13.49618489 29.92242432 -13.4375 26.4375 C-13.39432615 24.08137199 -13.35071224 21.72525201 -13.30664062 19.36914062 C-13.19931208 13.57951063 -13.09756835 7.78980225 -13 2 C-11.5882217 1.46605821 -10.17029756 0.94834896 -8.75 0.4375 C-7.96109375 0.14746094 -7.1721875 -0.14257812 -6.359375 -0.44140625 C-4 -1 -4 -1 0 0 Z " fill="#5E77C4" transform="translate(384,396)"/>
<path d="M0 0 C10.65691222 -0.0462719 21.31380068 -0.08184295 31.97079277 -0.10362434 C36.91887832 -0.11407654 41.86689532 -0.12826183 46.81494141 -0.15087891 C51.58707481 -0.17255623 56.35914213 -0.1845578 61.13132095 -0.18975449 C62.9550493 -0.19345946 64.77877389 -0.200694 66.60247421 -0.21146011 C69.15026512 -0.22590721 71.69778042 -0.22798081 74.24560547 -0.22705078 C75.00517548 -0.23424133 75.76474548 -0.24143188 76.54733276 -0.24884033 C81.77189568 -0.22810432 81.77189568 -0.22810432 84 2 C84 2.33 84 2.66 84 3 C85.670625 3.1546875 85.670625 3.1546875 87.375 3.3125 C88.57125 3.539375 89.7675 3.76625 91 4 C91.99 5.485 91.99 5.485 93 7 C89.41936487 7 87.52512014 6.65592475 84.25 5.5 C83.45078125 5.2215625 82.6515625 4.943125 81.828125 4.65625 C81.22484375 4.4396875 80.6215625 4.223125 80 4 C80 3.34 80 2.68 80 2 C53.6 1.67 27.2 1.34 0 1 C0 0.67 0 0.34 0 0 Z " fill="#5B7FE6" transform="translate(288,80)"/>
<path d="M0 0 C7.24100707 12.41315497 5.16694822 30.5177293 5.13037109 44.45361328 C5.12501935 46.86627526 5.1303529 49.2787499 5.13671875 51.69140625 C5.14082738 62.4913499 4.70743816 73.22405707 4 84 C3.67 84 3.34 84 3 84 C2.99191315 83.28828644 2.98382629 82.57657288 2.97549438 81.84329224 C2.89670523 75.04990856 2.80918191 68.25668393 2.71247292 61.4635334 C2.66307617 57.97328577 2.61675516 54.4830605 2.578125 50.99267578 C2.37181725 30.15612126 2.37181725 30.15612126 0.41552734 9.42919922 C0.0295401 6.24378389 -0.07589489 3.2042454 0 0 Z " fill="#5F7FD7" transform="translate(428,97)"/>
<path d="M0 0 C4.41853917 1.66385616 7.26795926 3.62742361 9.5 7.8125 C9.7475 8.8953125 9.7475 8.8953125 10 10 C6.30581799 10 4.22163822 8.71820705 1 7 C1 6.01 1 5.02 1 4 C-9.29703534 3.32963006 -9.29703534 3.32963006 -18 8 C-18.99 7.67 -19.98 7.34 -21 7 C-19.87720538 6.01830524 -18.75168527 5.03972702 -17.625 4.0625 C-16.68527344 3.24458984 -16.68527344 3.24458984 -15.7265625 2.41015625 C-11.20797988 -1.28036033 -5.55206667 -0.61766742 0 0 Z " fill="#6782DC" transform="translate(158,189)"/>
<path d="M0 0 C0.33 1.32 0.66 2.64 1 4 C0.01 4.33 -0.98 4.66 -2 5 C-3.02651373 6.71519747 -3.02651373 6.71519747 -4 9 C-5.30586659 11.34955148 -6.6566511 13.67152857 -8 16 C-8.99 16 -9.98 16 -11 16 C-10.67 17.98 -10.34 19.96 -10 22 C-10.66 22 -11.32 22 -12 22 C-12.33 23.32 -12.66 24.64 -13 26 C-13.66 26 -14.32 26 -15 26 C-15.66 29.96 -16.32 33.92 -17 38 C-17.66 38 -18.32 38 -19 38 C-18.22051014 22.6700328 -10.88535825 10.49042462 0 0 Z " fill="#6583D5" transform="translate(70,70)"/>
<path d="M0 0 C12.54 0 25.08 0 38 0 C38.495 1.98 38.495 1.98 39 4 C37.41796875 6.359375 37.41796875 6.359375 35.1875 8.75 C34.45917969 9.54921875 33.73085938 10.3484375 32.98046875 11.171875 C31 13 31 13 29 13 C29.66 11.02 30.32 9.04 31 7 C32.32 7 33.64 7 35 7 C35.33 5.35 35.66 3.7 36 2 C35.00371582 2.00785522 35.00371582 2.00785522 33.98730469 2.01586914 C9.63075082 2.18272378 9.63075082 2.18272378 0 1 C0 0.67 0 0.34 0 0 Z " fill="#5C79CD" transform="translate(317,312)"/>
<path d="M0 0 C9.9 0 19.8 0 30 0 C30 0.33 30 0.66 30 1 C27.36 1.33 24.72 1.66 22 2 C28.6 2.33 35.2 2.66 42 3 C42 3.33 42 3.66 42 4 C28.69221243 6.14641735 12.5160361 6.52656139 0 1 C0 0.67 0 0.34 0 0 Z " fill="#608CD8" transform="translate(95,396)"/>
<path d="M0 0 C10.28269711 -0.18389324 20.49150234 0.3941672 30.75 1 C32.42966953 1.09666696 34.10935696 1.19302333 35.7890625 1.2890625 C39.85958997 1.52246689 43.92985312 1.76005406 48 2 C47.67 2.99 47.34 3.98 47 5 C45.71996094 4.90912109 45.71996094 4.90912109 44.4140625 4.81640625 C34.23979341 4.13462533 24.06781126 3.71065362 13.87548828 3.39282227 C12.79895996 3.35600342 11.72243164 3.31918457 10.61328125 3.28125 C9.17142456 3.23581055 9.17142456 3.23581055 7.70043945 3.18945312 C5.05728661 3.00401902 2.58271221 2.57973865 0 2 C0 1.34 0 0.68 0 0 Z " fill="#5F82EB" transform="translate(305,312)"/>
<path d="M0 0 C1.99954746 -0.04254356 4.00041636 -0.04080783 6 0 C6.33 0.33 6.66 0.66 7 1 C9.32817964 1.36760731 11.6618385 1.70241581 14 2 C14 1.34 14 0.68 14 0 C23.24 0 32.48 0 42 0 C42 0.66 42 1.32 42 2 C39.87630763 2.36192504 37.7509887 2.71431747 35.625 3.0625 C33.84996094 3.35833984 33.84996094 3.35833984 32.0390625 3.66015625 C29 4 29 4 27 3 C25.22142354 2.92710005 23.44010031 2.91633993 21.66015625 2.9375 C20.0659082 2.94910156 20.0659082 2.94910156 18.43945312 2.9609375 C16.19205677 2.98693399 13.94466093 3.0129755 11.69726562 3.0390625 C10.63314453 3.04679687 9.56902344 3.05453125 8.47265625 3.0625 C7.49562744 3.07410156 6.51859863 3.08570312 5.51196289 3.09765625 C3 3 3 3 0 2 C0 1.34 0 0.68 0 0 Z " fill="#5D7BF6" transform="translate(222,80)"/>
<path d="M0 0 C0.8971875 0.309375 0.8971875 0.309375 1.8125 0.625 C0.884375 0.9653125 0.884375 0.9653125 -0.0625 1.3125 C-2.92414583 3.07998713 -3.32620483 4.39514312 -4.1875 7.625 C-4.22704234 9.95799825 -4.23151732 12.29208189 -4.1875 14.625 C-4.5175 15.285 -4.8475 15.945 -5.1875 16.625 C-5.41887716 20.06627621 -5.58294678 23.50077869 -5.70507812 26.94726562 C-5.79640568 28.84446625 -5.98463434 30.73646711 -6.1875 32.625 C-7.1775 33.12 -7.1775 33.12 -8.1875 33.625 C-8.2747253 29.22929206 -8.32796869 24.83380729 -8.375 20.4375 C-8.40013672 19.19162109 -8.42527344 17.94574219 -8.45117188 16.66210938 C-8.46083984 15.46005859 -8.47050781 14.25800781 -8.48046875 13.01953125 C-8.4961792 11.91456299 -8.51188965 10.80959473 -8.52807617 9.67114258 C-8.14100902 6.20918065 -7.26614349 4.39622062 -5.1875 1.625 C-2.1875 -0.375 -2.1875 -0.375 0 0 Z " fill="#5C7DD9" transform="translate(348.1875,367.375)"/>
<path d="M0 0 C0.66 0 1.32 0 2 0 C2.0740719 4.37821909 2.12856375 8.75610782 2.16479492 13.13476562 C2.179896 14.62473909 2.20037858 16.11466801 2.22631836 17.60449219 C2.26264584 19.7442523 2.27971221 21.88342566 2.29296875 24.0234375 C2.3086792 25.31169434 2.32438965 26.59995117 2.34057617 27.92724609 C2.22818604 28.94125488 2.1157959 29.95526367 2 31 C1.01 31.66 0.02 32.32 -1 33 C-1.02473064 28.78247482 -1.04287453 24.56498814 -1.05493164 20.34741211 C-1.05995842 18.91283432 -1.06678079 17.47826164 -1.07543945 16.04370117 C-1.08757752 13.98094418 -1.09324486 11.91825496 -1.09765625 9.85546875 C-1.10289307 8.61434326 -1.10812988 7.37321777 -1.11352539 6.09448242 C-1 3 -1 3 0 0 Z " fill="#5074DA" transform="translate(348,224)"/>
<path d="M0 0 C3.26098774 0.24155465 4.23269254 1.22715224 6.625 3.5625 C12.30931457 10.99583444 11.22458378 20.11646368 11 29 C10.67 29 10.34 29 10 29 C9.67 25.04 9.34 21.08 9 17 C8.67 29.21 8.34 41.42 8 54 C7.67 54 7.34 54 7 54 C7.00444122 53.44511902 7.00888245 52.89023804 7.01345825 52.31854248 C7.05770357 46.54360529 7.08787142 40.76871627 7.10986328 34.99365234 C7.1199211 32.83835901 7.13356899 30.68307932 7.15087891 28.52783203 C7.17513662 25.42997876 7.18648532 22.33230591 7.1953125 19.234375 C7.20563507 18.27070007 7.21595764 17.30702515 7.22659302 16.31414795 C7.22681961 14.96320038 7.22681961 14.96320038 7.22705078 13.58496094 C7.231492 12.79442322 7.23593323 12.0038855 7.24050903 11.18939209 C6.96436591 8.67561722 6.3583163 7.12832446 5 5 C4.01 4.34 3.02 3.68 2 3 C2 2.34 2 1.68 2 1 C1.34 0.67 0.68 0.34 0 0 Z " fill="#4F71DC" transform="translate(250,162)"/>
<path d="M0 0 C0.33 0 0.66 0 1 0 C1.61491335 13.67200967 2.18359241 27.3121658 2 41 C0 40 0 40 -1 37 C-1.35144525 33.15466138 -1.46592272 29.29512398 -1.625 25.4375 C-1.6765625 24.37080078 -1.728125 23.30410156 -1.78125 22.20507812 C-1.82507813 21.18736328 -1.86890625 20.16964844 -1.9140625 19.12109375 C-1.9548291 18.1870874 -1.9955957 17.25308105 -2.03759766 16.29077148 C-2 14 -2 14 -1 12 C-0.77141886 9.9625237 -0.58975722 7.91959697 -0.4375 5.875 C-0.35371094 4.77929688 -0.26992187 3.68359375 -0.18359375 2.5546875 C-0.12300781 1.71164062 -0.06242187 0.86859375 0 0 Z " fill="#4C6BDE" transform="translate(82,297)"/>
<path d="M0 0 C1.41152344 0.07250977 1.41152344 0.07250977 2.8515625 0.14648438 C3.83640625 0.20255859 4.82125 0.25863281 5.8359375 0.31640625 C6.82851563 0.36861328 7.82109375 0.42082031 8.84375 0.47460938 C11.29978318 0.60449574 13.7554311 0.73946789 16.2109375 0.87890625 C14.2109375 2.87890625 14.2109375 2.87890625 12.14816284 3.11941528 C11.29988922 3.11497406 10.4516156 3.11053284 9.57763672 3.10595703 C8.61679169 3.10580597 7.65594666 3.10565491 6.66598511 3.10549927 C5.62636627 3.0951767 4.58674744 3.08485413 3.515625 3.07421875 C2.45304474 3.07138885 1.39046448 3.06855896 0.29568481 3.06564331 C-3.10767749 3.05442264 -6.51077936 3.02931462 -9.9140625 3.00390625 C-12.21744412 2.99387889 -14.52082986 2.98475262 -16.82421875 2.9765625 C-22.47925595 2.95447718 -28.13414063 2.92098114 -33.7890625 2.87890625 C-33.7890625 2.54890625 -33.7890625 2.21890625 -33.7890625 1.87890625 C-32.57790771 1.84132202 -32.57790771 1.84132202 -31.34228516 1.80297852 C-27.69937333 1.68725138 -24.05673524 1.5644199 -20.4140625 1.44140625 C-18.50753906 1.38243164 -18.50753906 1.38243164 -16.5625 1.32226562 C-14.74492187 1.25942383 -14.74492187 1.25942383 -12.890625 1.1953125 C-11.20960693 1.14032593 -11.20960693 1.14032593 -9.49462891 1.08422852 C-5.99382656 0.81855673 -3.63835407 -0.19726016 0 0 Z " fill="#6185E8" transform="translate(273.7890625,312.12109375)"/>
<path d="M0 0 C-4.67049515 2.7376287 -7.98799719 3.33996234 -13.375 3.1875 C-14.62023437 3.16042969 -15.86546875 3.13335937 -17.1484375 3.10546875 C-18.55996094 3.05326172 -18.55996094 3.05326172 -20 3 C-20.99 5.31 -21.98 7.62 -23 10 C-23.66 9.67 -24.32 9.34 -25 9 C-24.47731534 6.23723823 -23.89130413 3.6739124 -23 1 C-19.36518542 -0.21160486 -15.85506326 -0.3941188 -12.0625 -0.625 C-11.34642578 -0.6765625 -10.63035156 -0.728125 -9.89257812 -0.78125 C-6.41419243 -1.00046244 -3.32118892 -1.16198255 0 0 Z " fill="#5772EE" transform="translate(132,257)"/>
<path d="M0 0 C3.9459435 1.3153145 6.87042636 3.26292383 10.171875 5.703125 C13.89170257 8.34197703 17.95110032 10.41975762 21.9375 12.625 C22.618125 13.07875 23.29875 13.5325 24 14 C24 14.66 24 15.32 24 16 C24.721875 16.0825 25.44375 16.165 26.1875 16.25 C29.55313254 17.14750201 31.41612816 18.7114278 34 21 C31.36 20.67 28.72 20.34 26 20 C26 19.34 26 18.68 26 18 C21.66231898 15.83801833 21.66231898 15.83801833 17 15 C16.67 13.68 16.34 12.36 16 11 C14.35 10.67 12.7 10.34 11 10 C11 9.34 11 8.68 11 8 C10.484375 7.773125 9.96875 7.54625 9.4375 7.3125 C6.09033884 5.51018245 2.96109508 3.38717496 0 1 C0 0.67 0 0.34 0 0 Z " fill="#5675D6" transform="translate(307,388)"/>
<path d="M0 0 C0.66 0.33 1.32 0.66 2 1 C0.625 3 0.625 3 -1 5 C-1.66 5 -2.32 5 -3 5 C-3.33 5.99 -3.66 6.98 -4 8 C-4.66 8 -5.32 8 -6 8 C-6 8.66 -6 9.32 -6 10 C-7.96937661 11.62356346 -9.93345148 13.13559566 -12 14.625 C-12.57234375 15.04523438 -13.1446875 15.46546875 -13.734375 15.8984375 C-15.15203933 16.93805801 -16.57549262 17.96977591 -18 19 C-18.33 18.34 -18.66 17.68 -19 17 C-16.32459253 13.43279004 -13.64340588 10.58873576 -10 8 C-9.34 8 -8.68 8 -8 8 C-7.67 7.01 -7.34 6.02 -7 5 C-5.03852126 3.61061923 -3.03833424 2.2739589 -1 1 C-0.67 0.67 -0.34 0.34 0 0 Z " fill="#5D78DA" transform="translate(419,368)"/>
<path d="M0 0 C3.77068832 -0.086985 7.54111932 -0.14038579 11.3125 -0.1875 C12.38435547 -0.21263672 13.45621094 -0.23777344 14.56054688 -0.26367188 C15.58857422 -0.27333984 16.61660156 -0.28300781 17.67578125 -0.29296875 C19.0975769 -0.31653442 19.0975769 -0.31653442 20.5480957 -0.34057617 C23 0 23 0 24.80541992 1.33081055 C26.32812495 3.45848974 26.46551392 5.233737 26.37109375 7.81640625 C25.59133315 12.40468179 23.74052103 16.70308871 22 21 C21.67 21 21.34 21 21 21 C21 18.69 21 16.38 21 14 C21.66 14 22.32 14 23 14 C22.855625 13.29875 22.71125 12.5975 22.5625 11.875 C21.4 5.93333333 21.4 5.93333333 21 3 C21.33 2.67 21.66 2.34 22 2 C14.74 1.67 7.48 1.34 0 1 C0 0.67 0 0.34 0 0 Z " fill="#5D7DD7" transform="translate(350,256)"/>
<path d="M0 0 C2.06060117 3.40098727 2.24591134 6.02934421 2.23046875 9.97265625 C2.22853516 11.11927734 2.22660156 12.26589844 2.22460938 13.44726562 C2.21236328 14.64029297 2.20011719 15.83332031 2.1875 17.0625 C2.18685547 18.25939453 2.18621094 19.45628906 2.18554688 20.68945312 C2.14052679 29.57841964 2.14052679 29.57841964 1 33 C1.165 33.763125 1.33 34.52625 1.5 35.3125 C2.08602891 38.46240537 1.65193358 40.88520622 1 44 C0.01 43.67 -0.98 43.34 -2 43 C-2.02685412 40.68756208 -2.04632841 38.3750373 -2.0625 36.0625 C-2.07410156 34.77472656 -2.08570313 33.48695313 -2.09765625 32.16015625 C-2 29 -2 29 -1 28 C-0.8415735 25.9291528 -0.74875578 23.85321971 -0.68359375 21.77734375 C-0.64169922 20.51728516 -0.59980469 19.25722656 -0.55664062 17.95898438 C-0.51682404 16.61849264 -0.47711186 15.2779978 -0.4375 13.9375 C-0.39431958 12.59308477 -0.35070544 11.2486834 -0.30664062 9.90429688 C-0.20014642 6.6029766 -0.0981354 3.30157764 0 0 Z " fill="#4F7AF5" transform="translate(315,212)"/>
<path d="M0 0 C9.57 0 19.14 0 29 0 C29 0.66 29 1.32 29 2 C30.65 2 32.3 2 34 2 C34 2.33 34 2.66 34 3 C26.74 3 19.48 3 12 3 C12 2.67 12 2.34 12 2 C8.04 1.67 4.08 1.34 0 1 C0 0.67 0 0.34 0 0 Z " fill="#4B62E7" transform="translate(276,312)"/>
<path d="M0 0 C1.74216797 0.04060547 1.74216797 0.04060547 3.51953125 0.08203125 C4.39996094 0.11683594 5.28039062 0.15164062 6.1875 0.1875 C3.78186247 2.59313753 2.51740189 2.79108311 -0.8125 3.1875 C-3 2.75 -3 2.75 -4.8125 2.1875 C-5.4725 2.1875 -6.1325 2.1875 -6.8125 2.1875 C-6.93625 3.156875 -7.06 4.12625 -7.1875 5.125 C-7.39375 6.135625 -7.6 7.14625 -7.8125 8.1875 C-10.30342811 9.43296405 -11.22330733 8.9642578 -13.8125 8.1875 C-14.1425 9.8375 -14.4725 11.4875 -14.8125 13.1875 C-15.4725 13.1875 -16.1325 13.1875 -16.8125 13.1875 C-16.18490135 10.25870629 -15.22627341 7.82654371 -13.8125 5.1875 C-13.1525 5.1875 -12.4925 5.1875 -11.8125 5.1875 C-11.8125 4.5275 -11.8125 3.8675 -11.8125 3.1875 C-7.87993146 0.12883558 -4.89581268 -0.14835796 0 0 Z " fill="#5F80DE" transform="translate(330.8125,188.8125)"/>
<path d="M0 0 C5.37181958 2.03258038 8.28750679 3.83334626 11 9 C11 9.66 11 10.32 11 11 C11.99 10.67 12.98 10.34 14 10 C16.6875 10.4375 16.6875 10.4375 19 11 C18.67 11.99 18.34 12.98 18 14 C12.03461922 13.70173096 8.19150664 11.03098086 4 7 C2.36631453 4.71831638 1.22123927 2.54424847 0 0 Z " fill="#6386E3" transform="translate(127,315)"/>
<path d="M0 0 C2.16318168 4.32636335 -0.68342977 10.56665128 -2 15 C-3.1381561 17.52373745 -4.10979791 18.93259147 -6 21 C-6.99 21 -7.98 21 -9 21 C-8.67 19.35 -8.34 17.7 -8 16 C-7.01 16 -6.02 16 -5 16 C-5.33 15.01 -5.66 14.02 -6 13 C-5.34 12.01 -4.68 11.02 -4 10 C-3.65795833 8.01471108 -3.65795833 8.01471108 -3.5625 5.9375 C-3.376875 4.638125 -3.19125 3.33875 -3 2 C-2.01 1.34 -1.02 0.68 0 0 Z " fill="#5C7FE6" transform="translate(428,347)"/>
<path d="M0 0 C0.66 0.33 1.32 0.66 2 1 C2 9.25 2 17.5 2 26 C-1.38403401 21.48795465 -1.38403401 21.48795465 -1.25 16.9375 C-1.22421875 15.98101562 -1.1984375 15.02453125 -1.171875 14.0390625 C-0.90643041 9.34551954 -0.50621587 4.67345724 0 0 Z " fill="#4C79E1" transform="translate(401,310)"/>
<path d="M0 0 C0.33 0 0.66 0 1 0 C1.05799124 3.77076889 1.09359306 7.54142334 1.125 11.3125 C1.14175781 12.38435547 1.15851563 13.45621094 1.17578125 14.56054688 C1.18222656 15.58857422 1.18867188 16.61660156 1.1953125 17.67578125 C1.20578613 18.62364502 1.21625977 19.57150879 1.22705078 20.5480957 C1 23 1 23 -1 26 C-1.66 25.67 -2.32 25.34 -3 25 C-3.04254356 23.00045254 -3.04080783 20.99958364 -3 19 C-2.67 18.67 -2.34 18.34 -2 18 C-1.78871644 15.35015201 -1.62387334 12.71660103 -1.5 10.0625 C-1.13434803 2.26869607 -1.13434803 2.26869607 0 0 Z " fill="#587FF2" transform="translate(343,382)"/>
<path d="M0 0 C4.70980954 1.60933646 8.53674819 4.17074365 12.625 6.9375 C13.29273438 7.38029297 13.96046875 7.82308594 14.6484375 8.27929688 C17.71564411 10.33739251 20.44065599 12.31788124 23 15 C21.02 15 19.04 15 17 15 C16.67 14.01 16.34 13.02 16 12 C15.01 12 14.02 12 13 12 C13 11.01 13 10.02 13 9 C11.68 9 10.36 9 9 9 C7.375 7.5625 7.375 7.5625 6 6 C5.34 5.67 4.68 5.34 4 5 C4 4.34 4 3.68 4 3 C2.68 2.67 1.36 2.34 0 2 C0 1.34 0 0.68 0 0 Z " fill="#5C80D3" transform="translate(284,373)"/>
<path d="M0 0 C0.90070724 0.02009628 1.80141449 0.04019257 2.72941589 0.06089783 C3.69825211 0.08793289 4.66708832 0.11496796 5.6652832 0.14282227 C7.15714897 0.17823875 7.15714897 0.17823875 8.67915344 0.21437073 C11.85826951 0.29099229 15.03714108 0.37502339 18.21606445 0.45922852 C20.37034933 0.51245069 22.52464617 0.56519108 24.67895508 0.61743164 C29.96230975 0.7466054 35.24548256 0.88186439 40.52856445 1.02172852 C40.52856445 1.35172852 40.52856445 1.68172852 40.52856445 2.02172852 C39.21138428 2.04678467 37.8942041 2.07184082 36.53710938 2.09765625 C31.65614884 2.19173733 26.77533038 2.29195643 21.89453125 2.39404297 C19.78095826 2.43738915 17.66735031 2.47906446 15.55371094 2.51904297 C12.51787782 2.57675301 9.48222057 2.64044553 6.4465332 2.70532227 C5.49957077 2.72203476 4.55260834 2.73874725 3.57695007 2.75596619 C2.69626358 2.77591141 1.81557709 2.79585663 0.90820312 2.81640625 C0.13320969 2.83195053 -0.64178375 2.84749481 -1.44026184 2.86351013 C-3.67476048 2.95528229 -3.67476048 2.95528229 -6.47143555 4.02172852 C-6.80143555 3.03172852 -7.13143555 2.04172852 -7.47143555 1.02172852 C-4.59830146 0.06401715 -2.96698348 -0.0747979 0 0 Z " fill="#6385E2" transform="translate(120.471435546875,81.978271484375)"/>
<path d="M0 0 C0.66 0 1.32 0 2 0 C1.67 1.98 1.34 3.96 1 6 C0.34 6 -0.32 6 -1 6 C-1.061875 7.03125 -1.12375 8.0625 -1.1875 9.125 C-2.18548657 13.88462827 -3.70490867 15.53592963 -7 19 C-7.66 18.67 -8.32 18.34 -9 18 C-8.01 16.515 -8.01 16.515 -7 15 C-6.34 15 -5.68 15 -5 15 C-5.061875 13.39125 -5.061875 13.39125 -5.125 11.75 C-5.01142928 8.34287835 -4.89535315 6.73773233 -3 4 C-2.34 3.67 -1.68 3.34 -1 3 C-0.67 2.01 -0.34 1.02 0 0 Z " fill="#6481D3" transform="translate(369,277)"/>
<path d="M0 0 C9.42337105 1.57056184 16.81607031 6.97868695 24 13 C20.48193227 13 18.24790985 12.36412214 15 11 C13.88625 9.8553125 13.88625 9.8553125 12.75 8.6875 C9.00577088 5.028367 4.72548292 3.15628832 0 1 C0 0.67 0 0.34 0 0 Z " fill="#5D7CD2" transform="translate(384,54)"/>
<path d="M0 0 C0.99 0 1.98 0 3 0 C3 0.66 3 1.32 3 2 C4.093125 2.103125 5.18625 2.20625 6.3125 2.3125 C10 3 10 3 11.9375 4.4375 C13 6 13 6 13 8 C14.98 8.66 16.96 9.32 19 10 C19 10.99 19 11.98 19 13 C14.29265588 11.42488485 10.65709989 8.8278266 6.6875 5.9375 C6.04232422 5.47794922 5.39714844 5.01839844 4.73242188 4.54492188 C3.13339855 3.39260983 1.56372663 2.19977402 0 1 C0 0.67 0 0.34 0 0 Z " fill="#6485DF" transform="translate(288,413)"/>
<path d="M0 0 C1.03115279 3.26913624 0.9638984 5.86041348 0.5625 9.25 C0.46066406 10.14203125 0.35882813 11.0340625 0.25390625 11.953125 C0.17011719 12.62859375 0.08632813 13.3040625 0 14 C-1.32 14 -2.64 14 -4 14 C-4.28875 14.639375 -4.5775 15.27875 -4.875 15.9375 C-6 18 -6 18 -8 19 C-6.842498 15.91332801 -5.50589016 12.98999542 -4 10.0625 C-2.33393447 6.7863189 -1.0585413 3.52847101 0 0 Z " fill="#5E7FD4" transform="translate(400,332)"/>
<path d="M0 0 C1.32 0 2.64 0 4 0 C4 0.66 4 1.32 4 2 C5.32 2 6.64 2 8 2 C9.36680153 4.26404542 10.71844445 6.53501021 12.0625 8.8125 C12.45244141 9.45509766 12.84238281 10.09769531 13.24414062 10.75976562 C14.24130759 12.4628915 15.12812687 14.22945858 16 16 C15.67 16.99 15.34 17.98 15 19 C14.22076172 17.64455078 14.22076172 17.64455078 13.42578125 16.26171875 C12.7219774 15.06994423 12.01751535 13.87855824 11.3125 12.6875 C10.97283203 12.09259766 10.63316406 11.49769531 10.28320312 10.88476562 C7.98409582 7.03859546 5.90589099 5.11369582 2 3 C2 2.34 2 1.68 2 1 C1.34 0.67 0.68 0.34 0 0 Z " fill="#6A85DB" transform="translate(381,88)"/>
<path d="M0 0 C1.9451 2.91765 2.45276317 4.62537285 3 8 C3.99 8.33 4.98 8.66 6 9 C6.84375 11.43359375 6.84375 11.43359375 7.5 14.4375 C8.37890213 19.07581463 8.37890213 19.07581463 12 22 C10.68 22 9.36 22 8 22 C0 6.56916996 0 6.56916996 0 0 Z " fill="#657FD2" transform="translate(112,275)"/>
<path d="M0 0 C0.33 0.66 0.66 1.32 1 2 C8.59 2.33 16.18 2.66 24 3 C24 3.33 24 3.66 24 4 C15.75 4 7.5 4 -1 4 C-1.33 4.66 -1.66 5.32 -2 6 C-2 5.34 -2 4.68 -2 4 C-2.99 4.33 -3.98 4.66 -5 5 C-5.99 3.68 -6.98 2.36 -8 1 C-5.36 0.67 -2.72 0.34 0 0 Z " fill="#567DF2" transform="translate(176,256)"/>
<path d="M0 0 C3.8088684 0.67215325 7.41388869 1.53295446 11 3 C11.33 3.99 11.66 4.98 12 6 C12.99 6.33 13.98 6.66 15 7 C16.1875 9.0625 16.1875 9.0625 17 11 C13.26426682 9.23384892 9.76637707 7.0975602 6.25 4.9375 C5.64800781 4.57333984 5.04601562 4.20917969 4.42578125 3.83398438 C2.93251679 2.91804779 1.4637333 1.96242579 0 1 C0 0.67 0 0.34 0 0 Z " fill="#627DDB" transform="translate(307,426)"/>
<path d="M0 0 C2 2 2 2 2 5 C3.98 4.67 5.96 4.34 8 4 C9 7 9 7 8.1875 8.9375 C7.795625 9.618125 7.40375 10.29875 7 11 C6.32845383 12.3308824 5.66108208 13.66388896 5 15 C4.16013916 13.06532058 3.32831973 11.12714871 2.5 9.1875 C2.0359375 8.10855469 1.571875 7.02960938 1.09375 5.91796875 C0 3 0 3 0 0 Z " fill="#6488E9" transform="translate(53,348)"/>
<path d="M0 0 C2.09122309 0.97092501 3.89476541 1.9142533 5.6875 3.375 C8.59591578 5.41875163 11.66717116 6.56996103 14.9765625 7.83984375 C17.39749553 9.22790767 18.00530273 10.43838713 19 13 C11.71565381 10.25045251 4.33529752 6.70000526 0 0 Z " fill="#6C83DA" transform="translate(75,383)"/>
<path d="M0 0 C2.51782478 2.51782478 2.36477775 3.69377529 2.625 7.1875 C2.69847656 8.1671875 2.77195312 9.146875 2.84765625 10.15625 C3.02416447 13.45107015 3.07329162 16.70187692 3 20 C2.34 20.33 1.68 20.66 1 21 C0.4011085 13.98441385 -0.13810221 7.04321257 0 0 Z " fill="#4158EA" transform="translate(347,198)"/>
<path d="M0 0 C3.4375 0.8125 3.4375 0.8125 7 2 C7.33 2.99 7.66 3.98 8 5 C9.93618425 5.67156616 9.93618425 5.67156616 12 6 C12.66 6.33 13.32 6.66 14 7 C14 7.66 14 8.32 14 9 C14.99 9 15.98 9 17 9 C17 9.66 17 10.32 17 11 C13.09544063 9.57497833 9.75164038 7.73347873 6.25 5.5 C5.28578125 4.8915625 4.3215625 4.283125 3.328125 3.65625 C1 2 1 2 0 0 Z " fill="#6A85DC" transform="translate(333,442)"/>
<path d="M0 0 C-0.33 0.66 -0.66 1.32 -1 2 C-3.65787907 2.36865437 -6.20385556 2.60599047 -8.875 2.75 C-9.60847656 2.80542969 -10.34195313 2.86085938 -11.09765625 2.91796875 C-15.00565042 3.1528755 -16.65828353 3.22781098 -20 1 C-13.34362157 -0.23839599 -6.7528064 -0.09139136 0 0 Z " fill="#5391F6" transform="translate(191,368)"/>
<path d="M0 0 C0.33 1.32 0.66 2.64 1 4 C0.01 4.33 -0.98 4.66 -2 5 C-3.02651373 6.71519747 -3.02651373 6.71519747 -4 9 C-5.30586659 11.34955148 -6.6566511 13.67152857 -8 16 C-8.66 16 -9.32 16 -10 16 C-7.54032688 9.56700876 -5.13773218 4.7211593 0 0 Z " fill="#6286E9" transform="translate(70,70)"/>
<path d="M0 0 C0 0.66 0 1.32 0 2 C-5.94 2.495 -5.94 2.495 -12 3 C-12 2.34 -12 1.68 -12 1 C-8.0186217 -0.3271261 -4.14954773 -0.06915913 0 0 Z M-12 3 C-13.27596315 5.55192629 -14.37156116 5.99500868 -17 7 C-17.99 6.67 -18.98 6.34 -20 6 C-17.53387212 2.8848911 -15.89156016 2.68446809 -12 3 Z " fill="#678AEF" transform="translate(157,190)"/>
<path d="M0 0 C-0.73046875 1.95703125 -0.73046875 1.95703125 -2 4 C-3.98828125 4.57421875 -3.98828125 4.57421875 -6.3125 4.6875 C-7.51132813 4.76871094 -7.51132813 4.76871094 -8.734375 4.8515625 C-9.48203125 4.90054688 -10.2296875 4.94953125 -11 5 C-12.67170873 5.30704854 -14.3420691 5.62562851 -16 6 C-11.9039822 1.45876288 -6.09426446 -0.57133729 0 0 Z " fill="#6180D7" transform="translate(104,53)"/>
<path d="M0 0 C3.32494886 2.98098864 5.42411818 5.79764848 7 10 C6.1875 12.375 6.1875 12.375 5 14 C4.566875 12.88625 4.13375 11.7725 3.6875 10.625 C2.30088881 6.82487666 2.30088881 6.82487666 -1 5 C-0.67 3.35 -0.34 1.7 0 0 Z " fill="#5C7AE0" transform="translate(420,80)"/>
<path d="M0 0 C0.33 0 0.66 0 1 0 C1 5.28 1 10.56 1 16 C1.99 16.33 2.98 16.66 4 17 C2.02 17 0.04 17 -2 17 C-2.04254356 15.00045254 -2.04080783 12.99958364 -2 11 C-1.67 10.67 -1.34 10.34 -1 10 C-0.76712992 8.31816052 -0.58735834 6.6287584 -0.4375 4.9375 C-0.35371094 4.01839844 -0.26992187 3.09929687 -0.18359375 2.15234375 C-0.12300781 1.44207031 -0.06242188 0.73179687 0 0 Z " fill="#506ED5" transform="translate(169,240)"/>
<path d="M0 0 C5.75 1.625 5.75 1.625 8 5 C7.67 5.99 7.34 6.98 7 8 C6.01 7.67 5.02 7.34 4 7 C4 6.34 4 5.68 4 5 C2.68 4.34 1.36 3.68 0 3 C0 2.01 0 1.02 0 0 Z " fill="#5284EA" transform="translate(95,359)"/>
<path d="M0 0 C0.33 0.99 0.66 1.98 1 3 C-0.5625 6.125 -0.5625 6.125 -3 9 C-6.25 9.875 -6.25 9.875 -9 10 C-8.67 9.34 -8.34 8.68 -8 8 C-7.34 8 -6.68 8 -6 8 C-5.67 7.01 -5.34 6.02 -5 5 C-4.34 5 -3.68 5 -3 5 C-3 4.34 -3 3.68 -3 3 C-1.5 1.375 -1.5 1.375 0 0 Z " fill="#5F7FCF" transform="translate(391,351)"/>
<path d="M0 0 C3 4 3 4 3.07421875 6.578125 C2.94660156 7.45984375 2.81898438 8.3415625 2.6875 9.25 C2.50767578 10.58804688 2.50767578 10.58804688 2.32421875 11.953125 C2.21722656 12.62859375 2.11023438 13.3040625 2 14 C1.01 13.67 0.02 13.34 -1 13 C-0.67 8.71 -0.34 4.42 0 0 Z " fill="#5072E3" transform="translate(314,242)"/>
<path d="M0 0 C2.33944736 0.28730055 4.6739143 0.61936779 7 1 C6.67 1.66 6.34 2.32 6 3 C0.39 3 -5.22 3 -11 3 C-11 2.67 -11 2.34 -11 2 C-10.28972656 1.93941406 -9.57945312 1.87882812 -8.84765625 1.81640625 C-7.46900391 1.69072266 -7.46900391 1.69072266 -6.0625 1.5625 C-5.14597656 1.48128906 -4.22945312 1.40007812 -3.28515625 1.31640625 C-1.03840268 1.23955024 -1.03840268 1.23955024 0 0 Z " fill="#567FF1" transform="translate(191,368)"/>
<path d="M0 0 C1.48828125 1.11328125 1.48828125 1.11328125 3 3 C3.29296875 5.91796875 3.29296875 5.91796875 3.1875 9.1875 C3.16042969 10.27417969 3.13335937 11.36085938 3.10546875 12.48046875 C3.07066406 13.31191406 3.03585937 14.14335937 3 15 C0.03090402 11.72698081 -0.34354794 9.61934238 -0.1875 5.25 C-0.16042969 4.26515625 -0.13335937 3.2803125 -0.10546875 2.265625 C-0.07066406 1.51796875 -0.03585937 0.7703125 0 0 Z " fill="#2D47EE" transform="translate(400,321)"/>
<path d="M0 0 C0.33 0 0.66 0 1 0 C1.33 2.31 1.66 4.62 2 7 C2.33 7 2.66 7 3 7 C3 8.98 3 10.96 3 13 C2.34 13 1.68 13 1 13 C0.67 13.99 0.34 14.98 0 16 C0 10.72 0 5.44 0 0 Z " fill="#5975EE" transform="translate(347,211)"/>
<path d="M0 0 C3.63559661 3.43361902 6.36113346 6.7973607 9 11 C6.08482708 9.92598892 4.22189824 9.22189824 2 7 C1.28072705 4.68234271 0.6090107 2.34904126 0 0 Z " fill="#6579D1" transform="translate(89,349)"/>
<path d="M0 0 C0.66 0 1.32 0 2 0 C3.2077558 3.62326739 2.54311128 4.64146369 1 8 C0.01 7.67 -0.98 7.34 -2 7 C-1.125 1.125 -1.125 1.125 0 0 Z " fill="#506EEC" transform="translate(314,202)"/>
<path d="M0 0 C-2.62756052 2.5224581 -3.9140389 2.99258956 -7.625 3.3125 C-11 3 -11 3 -13 1 C-8.61414671 0.29826347 -4.44209357 -0.10834375 0 0 Z " fill="#6B88D7" transform="translate(367,454)"/>
<path d="M0 0 C3.62276315 1.3255581 6.63505348 2.94346955 9.8125 5.125 C10.60269531 5.66382813 11.39289063 6.20265625 12.20703125 6.7578125 C12.79871094 7.16773438 13.39039063 7.57765625 14 8 C13.01 8.33 12.02 8.66 11 9 C8.30078125 7.3828125 8.30078125 7.3828125 5.3125 5.125 C4.31863281 4.38507813 3.32476562 3.64515625 2.30078125 2.8828125 C1.54152344 2.26148438 0.78226562 1.64015625 0 1 C0 0.67 0 0.34 0 0 Z " fill="#6483D3" transform="translate(307,388)"/>
<path d="M0 0 C0.66 0.33 1.32 0.66 2 1 C0.625 3 0.625 3 -1 5 C-1.66 5 -2.32 5 -3 5 C-3.33 5.99 -3.66 6.98 -4 8 C-4.99 8 -5.98 8 -7 8 C-5.61918777 3.8575633 -3.40174442 2.67796901 0 0 Z " fill="#667DC8" transform="translate(419,368)"/>
<path d="M0 0 C0.66 0 1.32 0 2 0 C1.67 1.98 1.34 3.96 1 6 C0.34 6 -0.32 6 -1 6 C-1.66 7.32 -2.32 8.64 -3 10 C-3.6875 8.1875 -3.6875 8.1875 -4 6 C-2.625 4.4375 -2.625 4.4375 -1 3 C-0.67 2.01 -0.34 1.02 0 0 Z " fill="#597BE4" transform="translate(369,277)"/>
<path d="M0 0 C3.34373475 0.55728913 6.03312999 1.35173889 9 3 C9 3.99 9 4.98 9 6 C5.06326356 4.68775452 2.77280706 3.08089673 0 0 Z " fill="#6981DD" transform="translate(279,407)"/>
<path d="M0 0 C-3.87671106 2.67289025 -7.79267603 2.01875653 -12.25 1.625 C-12.99507813 1.56828125 -13.74015625 1.5115625 -14.5078125 1.453125 C-16.33935108 1.31223742 -18.16981352 1.15748116 -20 1 C-20 0.67 -20 0.34 -20 0 C-17.41703983 -0.19522373 -14.83395921 -0.38144403 -12.25 -0.5625 C-11.52039063 -0.61857422 -10.79078125 -0.67464844 -10.0390625 -0.73242188 C-6.45046349 -0.97709908 -3.44972775 -0.99666259 0 0 Z " fill="#6478C7" transform="translate(132,257)"/>
<path d="M0 0 C4.0369867 1.79421631 6.64480474 3.20551875 9 7 C8.67 7.66 8.34 8.32 8 9 C6.68 8.34 5.36 7.68 4 7 C4 5.68 4 4.36 4 3 C2.68 2.67 1.36 2.34 0 2 C0 1.34 0 0.68 0 0 Z " fill="#6682D7" transform="translate(338,190)"/>
<path d="M0 0 C0.33 0 0.66 0 1 0 C1 3.96 1 7.92 1 12 C0.67 11.34 0.34 10.68 0 10 C-0.66 10 -1.32 10 -2 10 C-2.22036864 6.14354879 -1.60355101 3.50776784 0 0 Z " fill="#4DA2F5" transform="translate(224,187)"/>
<path d="M0 0 C0.66 0 1.32 0 2 0 C2 0.66 2 1.32 2 2 C1.34 2 0.68 2 0 2 C0 3.32 0 4.64 0 6 C-0.99 6 -1.98 6 -3 6 C-3.33 7.32 -3.66 8.64 -4 10 C-4.33 9.34 -4.66 8.68 -5 8 C-4.2578125 6.30859375 -4.2578125 6.30859375 -3.125 4.4375 C-2.75632813 3.81746094 -2.38765625 3.19742188 -2.0078125 2.55859375 C-1 1 -1 1 0 0 Z " fill="#6783D1" transform="translate(228,163)"/>
<path d="M0 0 C-1 2 -1 2 -3.1875 3.125 C-6.26769331 4.08328236 -8.79309948 4.14915816 -12 4 C-12 3.67 -12 3.34 -12 3 C-10.35 3 -8.7 3 -7 3 C-7 2.34 -7 1.68 -7 1 C-4.53721199 -0.231394 -2.7204945 -0.07159196 0 0 Z " fill="#5F7DD9" transform="translate(345,326)"/>
<path d="M0 0 C1.875 0.3125 1.875 0.3125 4 1 C4.66 1.99 5.32 2.98 6 4 C3.69 4 1.38 4 -1 4 C-0.67 2.68 -0.34 1.36 0 0 Z " fill="#548DF2" transform="translate(341,322)"/>
<path d="M0 0 C0.66 0 1.32 0 2 0 C1.67 2.31 1.34 4.62 1 7 C0.01 7 -0.98 7 -2 7 C-1.125 2.25 -1.125 2.25 0 0 Z " fill="#667DE0" transform="translate(109,259)"/>
<path d="M0 0 C0.66 0 1.32 0 2 0 C2.20086443 3.71599191 2.1519437 4.77208445 0 8 C-0.66 7.67 -1.32 7.34 -2 7 C-2 5.68 -2 4.36 -2 3 C-1.34 3 -0.68 3 0 3 C0 2.01 0 1.02 0 0 Z " fill="#4170F2" transform="translate(342,400)"/>
<path d="M0 0 C0.99 0.33 1.98 0.66 3 1 C3 1.66 3 2.32 3 3 C4.65 3.33 6.3 3.66 8 4 C7.67 4.99 7.34 5.98 7 7 C6.34 7 5.68 7 5 7 C5 6.34 5 5.68 5 5 C4.01 4.67 3.02 4.34 2 4 C0.8125 1.9375 0.8125 1.9375 0 0 Z " fill="#6A94E6" transform="translate(68,376)"/>
<path d="M0 0 C3.375 -0.1875 3.375 -0.1875 7 0 C7.66 0.99 8.32 1.98 9 3 C5.20442119 3 3.37097383 2.49821059 0 1 C0 0.67 0 0.34 0 0 Z " fill="#6A85E0" transform="translate(372,84)"/>
<path d="M0 0 C1.00289063 0.10183594 2.00578125 0.20367187 3.0390625 0.30859375 C3.80992187 0.39238281 4.58078125 0.47617188 5.375 0.5625 C5.375 0.8925 5.375 1.2225 5.375 1.5625 C-1.06 2.0575 -1.06 2.0575 -7.625 2.5625 C-7.625 1.9025 -7.625 1.2425 -7.625 0.5625 C-4.89657939 -0.80171031 -3.01546682 -0.31557211 0 0 Z " fill="#607AEB" transform="translate(282.625,80.4375)"/>
<path d="M0 0 C3.26460973 1.80412643 4.88929795 2.83394693 7 6 C4.03 5.505 4.03 5.505 1 5 C0.67 3.35 0.34 1.7 0 0 Z " fill="#627CD5" transform="translate(408,68)"/>
<path d="M0 0 C1.65 0 3.3 0 5 0 C5 0.66 5 1.32 5 2 C6.32 2.33 7.64 2.66 9 3 C6.36 3 3.72 3 1 3 C0.67 2.01 0.34 1.02 0 0 Z " fill="#5E7DEF" transform="translate(93,393)"/>
<path d="M0 0 C0.99 0 1.98 0 3 0 C2.67 1.65 2.34 3.3 2 5 C1.01 5 0.02 5 -1 5 C-0.67 3.35 -0.34 1.7 0 0 Z " fill="#5570E9" transform="translate(420,363)"/>
<path d="M0 0 C0.99 0.33 1.98 0.66 3 1 C4.1875 3.5625 4.1875 3.5625 5 6 C4.01 6 3.02 6 2 6 C0 2.25 0 2.25 0 0 Z " fill="#6E84DC" transform="translate(163,193)"/>
<path d="M0 0 C0.80824219 0.10183594 1.61648437 0.20367187 2.44921875 0.30859375 C3.06410156 0.39238281 3.67898437 0.47617188 4.3125 0.5625 C4.3125 0.8925 4.3125 1.2225 4.3125 1.5625 C0.6825 2.2225 -2.9475 2.8825 -6.6875 3.5625 C-7.0175 2.5725 -7.3475 1.5825 -7.6875 0.5625 C-4.59271121 -0.46909626 -3.16118607 -0.41232862 0 0 Z " fill="#5678E4" transform="translate(120.6875,82.4375)"/>
<path d="M0 0 C2.31 0.33 4.62 0.66 7 1 C7 2.32 7 3.64 7 5 C4.11424181 4.60196439 3.17810487 4.20990931 1.25 1.9375 C0.8375 1.298125 0.425 0.65875 0 0 Z " fill="#5C75E9" transform="translate(365,80)"/>
<path d="M0 0 C0.99 0.33 1.98 0.66 3 1 C2.67 1.99 2.34 2.98 2 4 C-0.31 4 -2.62 4 -5 4 C-2.6875 1.9375 -2.6875 1.9375 0 0 Z " fill="#5E81E6" transform="translate(366,450)"/>
<path d="M0 0 C2.6465335 2.6465335 3.59941997 5.56221264 5 9 C4.34 9 3.68 9 3 9 C3 8.34 3 7.68 3 7 C2.01 7 1.02 7 0 7 C0 4.69 0 2.38 0 0 Z " fill="#526FD8" transform="translate(84,338)"/>
<path d="M0 0 C0.66 0.33 1.32 0.66 2 1 C1.67 1.66 1.34 2.32 1 3 C0.34 3 -0.32 3 -1 3 C-1 3.66 -1 4.32 -1 5 C-2.65 5.33 -4.3 5.66 -6 6 C-4 4 -2 2 0 0 Z " fill="#5E7DD6" transform="translate(78,64)"/>
</svg>
