<?xml version="1.0" encoding="UTF-8"?>
<svg version="1.1" xmlns="http://www.w3.org/2000/svg" width="512" height="512">
<path d="M0 0 C1.67923022 -0.00551503 1.67923022 -0.00551503 3.39238429 -0.01114148 C7.14593256 -0.02215966 10.89945313 -0.02601907 14.65301514 -0.02983093 C17.34387373 -0.03609716 20.0347294 -0.04273169 22.72558594 -0.04974365 C30.80332913 -0.06947384 38.88107351 -0.07957145 46.95883477 -0.08847144 C50.76994859 -0.09286137 54.58106103 -0.09822648 58.39217377 -0.10346031 C71.07462399 -0.12047174 83.75707336 -0.13496244 96.43953323 -0.14220905 C99.7281418 -0.14411872 103.01675035 -0.14603908 106.30535889 -0.147995 C107.53130151 -0.14872061 107.53130151 -0.14872061 108.78201064 -0.14946087 C122.00002565 -0.15774819 135.21794977 -0.18306348 148.43592516 -0.21557567 C162.030253 -0.24873869 175.62453482 -0.26666627 189.2189033 -0.26985329 C196.8419081 -0.27201023 204.46478051 -0.28063802 212.08774567 -0.30631447 C218.58470331 -0.32814846 225.08149642 -0.33601025 231.57848659 -0.32634769 C234.8861979 -0.32183878 238.19329863 -0.32572187 241.50100708 -0.34310913 C273.82683034 -0.50341536 301.56004881 6.72645224 325.23406982 30.08467102 C347.44954012 52.70721255 354.27488278 81.26074957 354.18035889 112.1217804 C354.18307869 113.64496018 354.1866451 115.16813865 354.190979 116.6913147 C354.19998784 120.77605567 354.19660703 124.86069403 354.19022083 128.94543648 C354.18510045 133.25271473 354.18986885 137.55998513 354.19299316 141.86726379 C354.19661542 149.09583589 354.1918797 156.3243669 354.18231201 163.55293274 C354.17143084 171.86904681 354.17495766 180.18506275 354.18596482 188.50117445 C354.19508761 195.68556025 354.19629874 202.86991678 354.19108748 210.05430651 C354.18799506 214.32581213 354.18748228 218.59727188 354.19416046 222.86877441 C354.20000655 226.88760072 354.19580671 230.9063025 354.18437195 234.92511559 C354.18176368 236.38583356 354.18242328 237.84656232 354.18689728 239.30727577 C354.27336223 270.44671965 345.69986633 296.68277957 324.32000732 319.74092102 C305.70860763 338.41294417 279.9015728 349.11728835 253.55926514 349.320755 C252.87201859 349.32744202 252.18477203 349.33412903 251.47669983 349.34101868 C250.00084362 349.35494934 248.52496738 349.36688019 247.0490799 349.37696648 C244.71172122 349.39353393 242.37451328 349.41677054 240.03723145 349.44186401 C233.39768087 349.51224964 226.75807447 349.57292877 220.11834717 349.62397766 C216.04361736 349.65576956 211.96907279 349.69702611 207.8944931 349.74417305 C206.34598864 349.76016849 204.79744179 349.7725014 203.24887848 349.78108025 C201.08782571 349.7932379 198.92720998 349.81738323 196.76629639 349.8441925 C195.5380011 349.85449997 194.30970581 349.86480743 193.04418945 349.87542725 C189.37955065 350.19433986 187.10636339 350.89506695 184.57220459 353.57319641 C184.17315918 354.12483459 183.77411377 354.67647278 183.36297607 355.24482727 C182.90181396 355.87219788 182.44065186 356.49956848 181.96551514 357.14595032 C181.47663818 357.82697815 180.98776123 358.50800598 180.48406982 359.20967102 C179.40811104 360.67645113 178.33125931 362.14257656 177.25360107 363.60810852 C176.70139893 364.36317688 176.14919678 365.11824524 175.58026123 365.89619446 C172.99015104 369.41118062 170.33229514 372.87300888 167.67156982 376.33467102 C164.04621506 381.06190352 160.42730677 385.79379062 156.82391357 390.53779602 C156.12363037 391.45923401 155.42334717 392.380672 154.70184326 393.33003235 C153.35124947 395.10776797 152.00157242 396.8862006 150.65301514 398.66548157 C148.75177477 401.16663968 146.84004783 403.65921307 144.92156982 406.14717102 C144.23401611 407.04194153 143.5464624 407.93671204 142.83807373 408.8585968 C142.15019775 409.73886536 141.46232178 410.61913391 140.75360107 411.52607727 C140.13847656 412.31699768 139.52335205 413.10791809 138.8895874 413.92280579 C136.15738309 417.01089827 133.56525297 419.79290651 129.45672607 420.67842102 C128.64074951 420.66810852 127.82477295 420.65779602 126.98406982 420.64717102 C126.17067139 420.65748352 125.35727295 420.66779602 124.51922607 420.67842102 C117.11294248 419.1637525 113.485031 413.31507383 109.42156982 407.52217102 C108.18672564 405.80318741 106.9496886 404.08577726 105.71063232 402.36982727 C105.08318115 401.49858215 104.45572998 400.62733704 103.80926514 399.72969055 C100.89161 395.73810285 97.85070294 391.84725181 94.79656982 387.95967102 C90.32481771 382.24992338 85.89599558 376.51329102 81.54656982 370.70967102 C81.05535645 370.05442444 80.56414307 369.39917786 80.05804443 368.72407532 C77.84515471 365.76090058 75.65236338 362.78613141 73.50360107 359.77607727 C72.79590576 358.78478821 72.08821045 357.79349915 71.35906982 356.77217102 C70.75965576 355.91881165 70.1602417 355.06545227 69.54266357 354.18623352 C67.90884557 351.91761349 67.90884557 351.91761349 64.92156982 350.14717102 C61.84530019 349.83056747 61.84530019 349.83056747 58.2855835 349.86006165 C57.61513 349.85322861 56.94467651 349.84639557 56.25390625 349.83935547 C54.79709918 349.82576765 53.34024441 349.81671423 51.8833828 349.81164551 C49.56459087 349.80333157 47.24618817 349.78279524 44.92750549 349.7591095 C39.98808535 349.71086731 35.04862491 349.67804474 30.10906982 349.64717102 C24.41857921 349.61129661 18.72827342 349.56884664 13.03795815 349.51123047 C10.77722627 349.49146899 8.51664343 349.48289972 6.25584412 349.47492981 C-19.38720437 349.28651622 -42.9947121 342.50820615 -63.07843018 326.14717102 C-63.9060083 325.48330383 -64.73358643 324.81943665 -65.58624268 324.13545227 C-85.88949558 306.91905757 -97.3409891 282.43205067 -99.87258339 256.14848709 C-100.29032231 250.05771172 -100.22610884 243.95598745 -100.22369385 237.85371399 C-100.22669166 236.33142007 -100.23009561 234.80912691 -100.23387146 233.28683472 C-100.24265401 229.17697541 -100.24504719 225.06713697 -100.24568725 220.95726919 C-100.24640121 218.38112392 -100.24854208 215.80498385 -100.25118446 213.22883987 C-100.26042006 204.21723854 -100.26452174 195.20565193 -100.26373291 186.19404602 C-100.26313314 177.83375672 -100.27366979 169.47353214 -100.28947657 161.1132592 C-100.30261543 153.90352227 -100.30791413 146.69380633 -100.3072775 139.48405755 C-100.3070243 135.19233488 -100.30977579 130.90066978 -100.32045555 126.6089592 C-100.33024365 122.56559936 -100.3301436 118.52235084 -100.32293892 114.47898674 C-100.32190612 113.00859474 -100.32417665 111.5381954 -100.33029938 110.06781578 C-100.44093639 81.61845964 -94.0705342 54.41608169 -74.07843018 33.14717102 C-73.25987549 32.23838196 -72.4413208 31.3295929 -71.59796143 30.39326477 C-53.05528676 10.70023214 -26.91045461 -0.00475152 0 0 Z M-55.05108643 51.77217102 C-68.99050048 68.10196629 -73.72474095 87.87763197 -73.58013916 108.7960968 C-73.58393491 110.3914894 -73.58944519 111.98687867 -73.59651184 113.58226013 C-73.61031798 117.86325179 -73.59940371 122.14383485 -73.58280063 126.42480326 C-73.56880877 130.93454606 -73.57542593 135.44426851 -73.57893372 139.95402527 C-73.58162423 147.52058897 -73.56825869 155.08699299 -73.54498291 162.65351868 C-73.51836127 171.36734498 -73.51663659 180.0809049 -73.52837127 188.79475796 C-73.53919606 197.22455848 -73.53292649 205.65426385 -73.51881599 214.08405685 C-73.51309875 217.65068216 -73.5131049 221.21723685 -73.51788139 224.78386307 C-73.5226972 228.99152955 -73.5123617 233.19890885 -73.49092674 237.40652084 C-73.48542148 238.93902366 -73.48483495 240.47155444 -73.48987961 242.00405884 C-73.54550498 261.34537795 -69.3853638 278.7952229 -57.07843018 294.14717102 C-56.42229736 294.97861633 -55.76616455 295.81006165 -55.09014893 296.66670227 C-42.8467146 311.23795592 -24.88920578 320.35137235 -5.96896744 322.37251282 C-1.67392923 322.65105765 2.61778186 322.66610098 6.92040062 322.63302612 C9.29058759 322.615354 11.65959828 322.62348472 14.02980042 322.63728333 C19.0563096 322.66229202 24.08252412 322.6571843 29.10906982 322.64717102 C34.95617234 322.6355499 40.80268368 322.63711478 46.64971352 322.67123413 C48.95904672 322.67821547 51.26739025 322.66180795 53.5766449 322.64411926 C64.99787282 322.64630501 76.58254855 323.96378706 85.57391357 331.68232727 C90.57420821 336.93222064 94.78434944 342.81650989 99.07244873 348.64961243 C102.38657995 353.12592117 105.78661192 357.53684423 109.17156982 361.95967102 C114.79038861 369.32915044 120.3834351 376.71684026 125.92156982 384.14717102 C129.42441256 382.97955678 130.00771861 382.0496108 132.14422607 379.13154602 C132.75991455 378.29921448 133.37560303 377.46688293 134.00994873 376.60932922 C134.98713867 375.26681091 134.98713867 375.26681091 135.98406982 373.89717102 C137.3467516 372.05167615 138.71003276 370.20662369 140.07391357 368.36201477 C140.73633057 367.46208801 141.39874756 366.56216125 142.08123779 365.63496399 C145.12292764 361.52315455 148.25174021 357.48235179 151.39031982 353.44404602 C153.34479142 350.91899481 155.24695301 348.3589526 157.14031982 345.78779602 C157.70476807 345.02942444 158.26921631 344.27105286 158.85076904 343.48970032 C159.94482803 342.01872178 161.03046181 340.54142119 162.10565186 339.05659485 C169.05197927 329.77173651 176.58021226 325.62047726 187.92156982 323.14717102 C192.79815943 322.70016935 197.61751236 322.62382829 202.51151466 322.66131592 C204.88228834 322.67891228 207.25187775 322.67089305 209.62266541 322.65705872 C215.50754602 322.62774081 221.392184 322.64051372 227.27709961 322.65223694 C232.26768868 322.66052675 237.25775081 322.65216119 242.24826622 322.62310791 C244.55247312 322.61615087 246.85567788 322.63251061 249.1598053 322.65022278 C262.01034575 322.64653989 274.76357922 320.59703003 286.23406982 314.45967102 C286.89229736 314.11645813 287.5505249 313.77324524 288.22869873 313.41963196 C301.77332396 306.10374997 312.19548972 295.04749271 319.29656982 281.45967102 C319.60618652 280.88595764 319.91580322 280.31224426 320.23480225 279.72114563 C326.3775156 267.16007364 327.51907385 253.21014023 327.42327881 239.47651672 C327.4270757 237.89082869 327.43258688 236.305144 327.43965149 234.71946716 C327.45344174 230.46952415 327.44255546 226.21999343 327.42594028 221.97007394 C327.41193575 217.49103357 327.41856689 213.01201344 327.42207336 208.53295898 C327.42476262 201.01944957 327.41140837 193.5061011 327.38812256 185.99263 C327.36149186 177.34069834 327.35977983 168.68903494 327.37151092 160.03707629 C327.38233574 151.66440463 327.37606675 143.29182876 327.36195564 134.91916466 C327.35623941 131.37765896 327.3562437 127.83622439 327.36102104 124.29471779 C327.36583708 120.11740594 327.35550046 115.94038334 327.33406639 111.76312637 C327.32856179 110.24191068 327.32797396 108.72066682 327.33301926 107.19944954 C327.40107138 83.71450527 320.47221795 63.98268401 303.92156982 47.14717102 C303.30668701 46.51939758 302.6918042 45.89162415 302.05828857 45.24482727 C282.37206697 26.65462657 257.3629481 25.84353929 231.84832764 25.87251282 C229.31244762 25.86816032 226.77656891 25.86297539 224.24069214 25.85702515 C218.09187846 25.8450638 211.94312505 25.84247686 205.79430202 25.84482541 C200.79046268 25.84661578 195.78663653 25.8448436 190.78279877 25.84060097 C190.0678745 25.84000578 189.35295024 25.83941059 188.6163616 25.83879736 C187.16349898 25.83758548 185.71063635 25.83637135 184.25777373 25.83515499 C170.66192759 25.82430259 157.06610632 25.82643085 143.4702588 25.83253983 C131.0668077 25.8377054 118.66343522 25.82645895 106.25999966 25.80744161 C93.48696844 25.78800961 80.71397431 25.77981668 67.94092822 25.78356487 C60.78478325 25.785469 53.62870514 25.78306693 46.47257233 25.76885033 C39.7386444 25.75560655 33.00489824 25.75826892 26.27096176 25.77126122 C23.8108782 25.77361447 21.35078342 25.77093765 18.89071274 25.76263809 C-10.32342579 25.67124665 -33.99125537 29.8364338 -55.05108643 51.77217102 Z " fill="#000000" transform="translate(129.07843017578125,45.85282897949219)"/>
<path d="M0 0 C6.47312481 5.31834477 10.0202606 10.30949622 10.9453125 18.703125 C11.26459429 27.7010664 9.58326144 33.60744184 4.82421875 41.0859375 C-1.75841113 47.66856738 -8.32531724 49.68338764 -17.51953125 49.71875 C-25.89178169 49.52591506 -31.6240068 46.55191926 -37.36328125 40.5859375 C-42.09622359 34.63627177 -44.01443569 28.1680091 -43.7109375 20.59375 C-42.85178526 13.79114731 -40.35000896 7.21360041 -35.42578125 2.3359375 C-24.63429341 -5.539893 -11.56432323 -7.933014 0 0 Z " fill="#000000" transform="translate(183.42578125,197.6640625)"/>
<path d="M0 0 C5.15212306 3.93915236 9.17909397 10.54005261 10.3125 16.9375 C11.14546697 26.21226679 9.64954995 33.48152477 3.6875 40.75 C-2.51873668 47.18110033 -7.90700792 49.12972162 -16.8125 49.375 C-22.2920167 49.19843126 -25.98172324 48.72255155 -30.6875 45.9375 C-31.57501953 45.44443359 -31.57501953 45.44443359 -32.48046875 44.94140625 C-38.53345642 41.21152685 -41.48022495 35.55932516 -43.6875 28.9375 C-44.51155116 19.88470941 -44.18793142 12.41381455 -38.6875 4.9375 C-28.36870867 -6.90667788 -13.11752338 -8.12998152 0 0 Z " fill="#000000" transform="translate(361.6875,198.0625)"/>
<path d="M0 0 C5.36620094 4.18769625 7.84038905 9.32976089 9.95703125 15.6796875 C10.78715349 24.62051231 9.89232976 32.36805402 4.44921875 39.71484375 C-0.55531353 45.19655237 -6.02317739 48.22786854 -13.4140625 49.05859375 C-22.88914212 49.37476971 -29.72891592 47.91445933 -36.85546875 41.5546875 C-42.90046714 34.93330554 -44.75839224 27.40390805 -44.4296875 18.57421875 C-43.48171242 11.47876894 -40.13978453 5.66324071 -35.04296875 0.6796875 C-23.52527144 -6.93685427 -11.86071243 -7.66524054 0 0 Z " fill="#000000" transform="translate(273.04296875,198.3203125)"/>
</svg>
